<svg width="494" height="483" viewBox="0 0 494 483" fill="none" xmlns="http://www.w3.org/2000/svg">
<path d="M0 20C0 8.95431 8.9543 0 20 0H474C485.046 0 494 8.95431 494 20V463C494 474.046 485.046 483 474 483H20C8.95432 483 0 474.046 0 463V20Z" fill="#F5F5F5"/>
<path d="M0.5 20C0.5 9.23046 9.23045 0.5 20 0.5H474C484.77 0.5 493.5 9.23045 493.5 20V463C493.5 473.77 484.77 482.5 474 482.5H20C9.23046 482.5 0.5 473.77 0.5 463V20Z" stroke="black" stroke-opacity="0.06"/>
<rect x="52" y="53" width="390" height="377" rx="20" fill="#004852"/>
<path d="M88.886 96.18C85.412 96.18 83.9 94.578 83.9 92.256V91.95H85.808V92.148C85.808 93.642 86.438 94.398 88.958 94.398C90.74 94.398 91.388 93.912 91.388 92.796C91.388 91.698 91.028 91.302 89.174 90.924L87.122 90.51C85.052 90.114 83.936 89.106 83.936 87.198C83.936 85.416 85.322 83.76 88.436 83.76C91.766 83.76 93.098 85.632 93.098 87.774V87.99H91.19V87.792C91.19 86.316 90.542 85.542 88.382 85.542C86.6 85.542 85.88 86.046 85.88 87.108C85.88 88.206 86.366 88.512 88.022 88.872L90.074 89.304C92.342 89.772 93.332 90.906 93.332 92.724C93.332 94.614 91.964 96.18 88.886 96.18ZM97.555 96.18C95.953 96.18 94.711 95.352 94.711 93.786C94.711 92.31 95.791 91.536 97.699 91.266L100.831 90.798V90.312C100.831 88.98 100.219 88.584 98.815 88.584C97.393 88.584 96.835 89.034 96.835 90.222V90.492H94.963V90.312C94.963 88.314 96.529 86.874 98.923 86.874C101.425 86.874 102.685 88.386 102.685 90.564V96H100.885V94.596H100.795C100.273 95.442 99.247 96.18 97.555 96.18ZM96.601 93.642C96.601 94.344 97.051 94.632 98.185 94.632C99.445 94.632 100.831 94.128 100.831 92.328V92.166L97.987 92.598C96.961 92.742 96.601 92.976 96.601 93.642ZM109.756 96H107.308L103.726 87.054H105.886L108.496 94.146H108.622L111.25 87.054H113.356L109.756 96ZM116.383 85.92H114.457L114.439 83.94H116.383V85.92ZM116.401 96H114.457V87H116.401V96ZM120.49 96H118.546V87.054H120.328V88.728H120.4C120.814 87.774 121.768 86.874 123.514 86.874C125.836 86.874 126.88 88.35 126.88 90.384V96H124.936V90.816C124.936 89.214 124.432 88.548 122.794 88.548C121.21 88.548 120.49 89.16 120.49 90.834V96ZM132.54 95.154C130.074 95.154 128.706 93.534 128.706 91.014C128.706 88.494 130.092 86.874 132.612 86.874C134.052 86.874 135.168 87.486 135.6 88.53H135.672V87.054H137.455V95.352C137.455 97.998 135.906 99.24 133.296 99.24C130.758 99.24 129.174 98.034 129.174 95.874H131.1C131.1 97.098 131.55 97.512 133.35 97.512C135.096 97.512 135.528 97.008 135.528 95.352V93.57H135.456C135.042 94.434 133.998 95.154 132.54 95.154ZM130.65 91.014C130.65 92.85 131.406 93.498 133.098 93.498C134.556 93.498 135.528 92.796 135.528 91.284V90.726C135.528 89.232 134.556 88.53 133.062 88.53C131.388 88.53 130.65 89.178 130.65 91.014ZM149.23 96H147.286V83.94H150.04L152.794 90.564L153.856 93.444H154L155.044 90.564L157.744 83.94H160.498V96H158.572V88.872L158.644 86.856H158.518L157.762 88.872L155.062 95.28H152.722L150.004 88.872L149.284 86.856H149.122L149.23 88.872V96ZM166.743 96.18C163.989 96.18 162.279 94.308 162.279 91.518C162.279 88.746 163.989 86.874 166.743 86.874C169.479 86.874 171.135 88.746 171.135 91.518C171.135 94.308 169.479 96.18 166.743 96.18ZM166.743 94.452C168.615 94.452 169.263 93.534 169.263 91.518C169.263 89.52 168.615 88.602 166.743 88.602C164.853 88.602 164.187 89.52 164.187 91.518C164.187 93.534 164.853 94.452 166.743 94.452ZM174.893 96H172.949V87.054H174.731V88.728H174.803C175.217 87.774 176.171 86.874 177.917 86.874C180.239 86.874 181.283 88.35 181.283 90.384V96H179.339V90.816C179.339 89.214 178.835 88.548 177.197 88.548C175.613 88.548 174.893 89.16 174.893 90.834V96ZM187.142 96C185.144 96 184.1 95.262 184.1 93.246V88.674H182.606V87.054H184.136L184.55 84.84H186.044V87.054H188.744V88.674H186.044V93.156C186.044 94.092 186.44 94.254 187.646 94.254H188.744V95.838C188.366 95.928 187.754 96 187.142 96ZM192.435 96H190.491V83.94H192.435V88.548H192.507C192.921 87.738 193.875 86.874 195.495 86.874C197.835 86.874 198.825 88.404 198.825 90.366V96H196.881V90.816C196.881 89.214 196.377 88.548 194.739 88.548C193.155 88.548 192.435 89.16 192.435 90.852V96Z" fill="#F9F9F9"/>
<path d="M92.36 134.4H89.024V132.096C85.688 131.616 84.128 129.768 84.128 126.768V126.456H87.656V126.696C87.656 128.472 88.304 128.976 91.208 128.976C93.248 128.976 93.752 128.568 93.752 127.488C93.752 126.408 93.512 126.024 91.256 125.64L88.424 125.136C85.352 124.608 84.056 123.048 84.056 120.552C84.056 118.368 85.472 116.232 89.024 115.776V113.52H92.36V115.848C95.576 116.424 96.968 118.536 96.968 121.248V121.44H93.416V121.176C93.416 119.496 92.72 118.944 90.344 118.944C88.28 118.944 87.632 119.4 87.632 120.408C87.632 121.44 88.064 121.68 89.936 122.04L92.792 122.592C96.176 123.24 97.328 125.016 97.328 127.368C97.328 129.672 95.936 131.76 92.36 132.168V134.4ZM110.974 132H107.398V120.48H103.774V117.912H104.494C106.006 117.912 106.942 117.36 107.71 115.92H110.974V132ZM120.077 132.24C115.733 132.24 113.237 130.704 113.237 127.56C113.237 125.208 114.773 124.056 116.357 123.6V123.456C114.845 123.192 113.765 121.92 113.765 120.024C113.765 117.48 115.757 115.68 120.101 115.68C124.445 115.68 126.437 117.48 126.437 120.024C126.437 121.92 125.357 123.192 123.845 123.456V123.6C125.405 124.056 126.965 125.208 126.965 127.56C126.965 130.704 124.445 132.24 120.077 132.24ZM120.101 122.496C122.165 122.496 122.837 121.944 122.837 120.72C122.837 119.496 122.165 118.944 120.101 118.944C118.013 118.944 117.341 119.496 117.341 120.72C117.341 121.944 118.013 122.496 120.101 122.496ZM120.101 129C122.693 129 123.317 128.352 123.317 126.96C123.317 125.568 122.693 124.944 120.101 124.944C117.485 124.944 116.885 125.568 116.885 126.96C116.885 128.352 117.485 129 120.101 129ZM135.869 132.24C131.525 132.24 129.365 130.368 129.365 127.392V127.2H132.941V127.392C132.941 128.568 133.901 128.952 136.037 128.952C138.317 128.952 139.109 128.352 139.109 126.72C139.109 125.04 138.245 124.464 135.989 124.464C134.381 124.464 133.205 124.968 132.677 125.28L129.485 124.848L129.965 115.92H141.773V119.16H133.157L132.893 122.664H132.989C133.613 122.088 135.005 121.416 137.189 121.416C140.741 121.416 142.637 123.408 142.637 126.6C142.637 129.888 140.741 132.24 135.869 132.24ZM158.053 132H145.477V129.84C145.477 126.72 147.589 125.424 149.821 124.344L152.605 123.024C154.021 122.352 154.525 121.824 154.525 120.768C154.525 119.616 153.997 118.968 151.861 118.968C149.533 118.968 149.053 119.616 149.053 121.344V121.752H145.453V121.368C145.453 118.248 147.373 115.68 152.149 115.68C156.397 115.68 158.101 117.84 158.101 120.744C158.101 123.528 156.133 124.944 154.045 125.88L151.621 126.936C150.301 127.536 149.317 128.04 149.317 128.808L151.909 128.76H158.053V132ZM161.913 135.552H160.713V133.2H161.817C162.321 133.2 162.537 133.056 162.537 132.432V132H160.617V127.752H165.129V132.384C165.129 134.52 163.953 135.552 161.913 135.552ZM174.848 132.24C170.216 132.24 167.624 128.976 167.624 123.96C167.624 118.968 170.216 115.68 174.848 115.68C179.456 115.68 182.048 118.968 182.048 123.96C182.048 128.976 179.456 132.24 174.848 132.24ZM174.848 128.76C177.296 128.76 178.208 127.776 178.208 123.96C178.208 120.144 177.296 119.16 174.848 119.16C172.376 119.16 171.464 120.144 171.464 123.96C171.464 127.776 172.376 128.76 174.848 128.76ZM192.695 132.24C188.063 132.24 185.471 128.976 185.471 123.96C185.471 118.968 188.063 115.68 192.695 115.68C197.303 115.68 199.895 118.968 199.895 123.96C199.895 128.976 197.303 132.24 192.695 132.24ZM192.695 128.76C195.143 128.76 196.055 127.776 196.055 123.96C196.055 120.144 195.143 119.16 192.695 119.16C190.223 119.16 189.311 120.144 189.311 123.96C189.311 127.776 190.223 128.76 192.695 128.76Z" fill="white"/>
<path d="M85.4846 158H84.3486V147.28H85.4846V158ZM88.9117 158H87.7597V150.096H88.7997V151.728H88.8477C89.1517 150.896 90.0477 149.936 91.6797 149.936C93.7117 149.936 94.6397 151.248 94.6397 153.152V158H93.5037V153.408C93.5037 151.696 92.9437 150.944 91.3277 150.944C89.7597 150.944 88.9117 151.68 88.9117 153.44V158ZM100.097 158.176C97.7615 158.176 96.3535 156.464 96.3535 154.064C96.3535 151.648 97.7615 149.936 100.097 149.936C102.113 149.936 103.473 151.232 103.473 153.088V153.2H102.337V153.104C102.337 151.728 101.601 150.976 100.049 150.976C98.2415 150.976 97.4895 152.112 97.4895 154.064C97.4895 156 98.2415 157.136 100.049 157.136C101.601 157.136 102.337 156.384 102.337 155.008V154.912H103.473V155.024C103.473 156.88 102.113 158.176 100.097 158.176ZM106.349 158H105.197V150H106.237V151.328H106.317C106.573 150.592 107.341 149.936 108.509 149.936C110.141 149.936 110.765 151.104 110.765 152.464V152.912H109.613V152.64C109.613 151.408 109.229 150.928 108.093 150.928C106.861 150.928 106.349 151.488 106.349 152.768V158ZM115.627 158.16C113.195 158.16 111.931 156.448 111.931 154.048C111.931 151.648 113.355 149.936 115.611 149.936C117.515 149.936 119.083 151.088 119.083 153.424C119.083 153.792 119.051 154.144 119.003 154.368H113.019C113.067 156.112 113.755 157.136 115.643 157.136C117.243 157.136 117.883 156.416 117.883 155.456V155.36H119.019V155.472C119.019 156.992 117.643 158.16 115.627 158.16ZM115.579 150.928C113.819 150.928 113.115 151.936 113.019 153.536H117.995C118.059 151.664 117.131 150.928 115.579 150.928ZM123.137 158.16C121.697 158.16 120.609 157.424 120.609 156.096C120.609 154.72 121.633 154.112 123.361 153.872L126.145 153.488V152.912C126.145 151.52 125.553 150.96 124.065 150.96C122.625 150.96 121.953 151.52 121.953 152.784V153.024H120.849V152.896C120.849 151.248 122.113 149.936 124.161 149.936C126.273 149.936 127.233 151.296 127.233 153.056V158H126.193V156.544L126.113 156.528C125.649 157.44 124.641 158.16 123.137 158.16ZM121.729 156.016C121.729 156.832 122.241 157.2 123.457 157.2C124.817 157.2 126.145 156.496 126.145 154.624V154.352L123.457 154.736C122.193 154.912 121.729 155.168 121.729 156.016ZM132.466 158.16C130.306 158.16 129.122 157.248 129.122 155.408V155.376H130.242V155.568C130.242 156.656 130.69 157.184 132.482 157.184C133.954 157.184 134.338 156.768 134.338 155.968C134.338 155.168 133.842 154.88 132.642 154.656L131.33 154.432C130.05 154.192 129.122 153.6 129.122 152.208C129.122 150.848 130.274 149.936 132.146 149.936C133.954 149.936 135.282 150.864 135.282 152.64V152.72H134.178V152.592C134.178 151.648 133.81 150.928 132.114 150.928C130.674 150.928 130.226 151.392 130.226 152.192C130.226 152.992 130.626 153.264 131.81 153.488L133.154 153.744C134.53 154 135.442 154.608 135.442 155.92C135.442 157.328 134.29 158.16 132.466 158.16ZM140.712 158.16C138.28 158.16 137.016 156.448 137.016 154.048C137.016 151.648 138.44 149.936 140.696 149.936C142.6 149.936 144.168 151.088 144.168 153.424C144.168 153.792 144.136 154.144 144.088 154.368H138.104C138.152 156.112 138.84 157.136 140.728 157.136C142.328 157.136 142.968 156.416 142.968 155.456V155.36H144.104V155.472C144.104 156.992 142.728 158.16 140.712 158.16ZM140.664 150.928C138.904 150.928 138.2 151.936 138.104 153.536H143.08C143.144 151.664 142.216 150.928 140.664 150.928ZM152.84 158.16C150.52 158.16 149 156.448 149 154.048C149 151.648 150.52 149.936 152.84 149.936C155.144 149.936 156.616 151.648 156.616 154.048C156.616 156.448 155.144 158.16 152.84 158.16ZM152.84 157.136C154.744 157.136 155.496 156.016 155.496 154.048C155.496 152.08 154.744 150.976 152.84 150.976C150.904 150.976 150.136 152.08 150.136 154.048C150.136 156.016 150.904 157.136 152.84 157.136ZM159.785 158H158.649V151.088H157.481V150.096H158.649V149.792C158.649 148.16 159.561 147.28 161.305 147.28H162.009V148.224H161.097C160.185 148.224 159.769 148.608 159.769 149.408V150.096H162.009V151.088H159.785V158ZM201.174 158H200.038V151.088H198.87V150.096H200.038V149.792C200.038 148.16 200.95 147.28 202.694 147.28H203.398V148.224H202.486C201.574 148.224 201.158 148.608 201.158 149.408V150.096H203.398V151.088H201.174V158ZM205.766 158H204.614V150H205.654V151.328H205.734C205.99 150.592 206.758 149.936 207.926 149.936C209.558 149.936 210.182 151.104 210.182 152.464V152.912H209.03V152.64C209.03 151.408 208.646 150.928 207.51 150.928C206.278 150.928 205.766 151.488 205.766 152.768V158ZM215.188 158.16C212.868 158.16 211.348 156.448 211.348 154.048C211.348 151.648 212.868 149.936 215.188 149.936C217.492 149.936 218.964 151.648 218.964 154.048C218.964 156.448 217.492 158.16 215.188 158.16ZM215.188 157.136C217.092 157.136 217.844 156.016 217.844 154.048C217.844 152.08 217.092 150.976 215.188 150.976C213.252 150.976 212.484 152.08 212.484 154.048C212.484 156.016 213.252 157.136 215.188 157.136ZM221.828 158H220.676V150.096H221.716V151.728H221.764C222.068 150.896 222.9 149.936 224.532 149.936C225.972 149.936 226.836 150.624 227.188 151.744H227.236C227.556 150.896 228.372 149.936 230.004 149.936C232.036 149.936 232.964 151.248 232.964 153.136V158H231.828V153.408C231.828 151.696 231.252 150.944 229.652 150.944C228.148 150.944 227.396 151.68 227.396 153.44V158H226.26V153.408C226.26 151.696 225.7 150.944 224.1 150.944C222.596 150.944 221.828 151.68 221.828 153.44V158ZM239.468 158H238.316V147.28H239.468V158ZM243.687 158.16C242.247 158.16 241.159 157.424 241.159 156.096C241.159 154.72 242.183 154.112 243.911 153.872L246.695 153.488V152.912C246.695 151.52 246.103 150.96 244.615 150.96C243.175 150.96 242.503 151.52 242.503 152.784V153.024H241.399V152.896C241.399 151.248 242.663 149.936 244.711 149.936C246.823 149.936 247.783 151.296 247.783 153.056V158H246.743V156.544L246.663 156.528C246.199 157.44 245.191 158.16 243.687 158.16ZM242.279 156.016C242.279 156.832 242.791 157.2 244.007 157.2C245.367 157.2 246.695 156.496 246.695 154.624V154.352L244.007 154.736C242.743 154.912 242.279 155.168 242.279 156.016ZM253.015 158.16C250.855 158.16 249.671 157.248 249.671 155.408V155.376H250.791V155.568C250.791 156.656 251.239 157.184 253.031 157.184C254.503 157.184 254.887 156.768 254.887 155.968C254.887 155.168 254.391 154.88 253.191 154.656L251.879 154.432C250.599 154.192 249.671 153.6 249.671 152.208C249.671 150.848 250.823 149.936 252.695 149.936C254.503 149.936 255.831 150.864 255.831 152.64V152.72H254.727V152.592C254.727 151.648 254.359 150.928 252.663 150.928C251.223 150.928 250.775 151.392 250.775 152.192C250.775 152.992 251.175 153.264 252.359 153.488L253.703 153.744C255.079 154 255.991 154.608 255.991 155.92C255.991 157.328 254.839 158.16 253.015 158.16ZM260.752 158.016C259.296 158.016 258.448 157.44 258.448 155.76V151.088H257.12V150.096H258.464L258.736 148.08H259.6V150.096H262.096V151.088H259.6V155.824C259.6 156.752 260.032 156.96 261.056 156.96H262.096V157.888C261.824 157.936 261.328 158.016 260.752 158.016ZM267.99 158H266.838V150.096H267.878V151.728H267.926C268.23 150.896 269.062 149.936 270.694 149.936C272.134 149.936 272.998 150.624 273.35 151.744H273.398C273.718 150.896 274.534 149.936 276.166 149.936C278.198 149.936 279.126 151.248 279.126 153.136V158H277.99V153.408C277.99 151.696 277.414 150.944 275.814 150.944C274.31 150.944 273.558 151.68 273.558 153.44V158H272.422V153.408C272.422 151.696 271.862 150.944 270.262 150.944C268.758 150.944 267.99 151.68 267.99 153.44V158ZM284.693 158.16C282.373 158.16 280.853 156.448 280.853 154.048C280.853 151.648 282.373 149.936 284.693 149.936C286.997 149.936 288.469 151.648 288.469 154.048C288.469 156.448 286.997 158.16 284.693 158.16ZM284.693 157.136C286.597 157.136 287.349 156.016 287.349 154.048C287.349 152.08 286.597 150.976 284.693 150.976C282.757 150.976 281.989 152.08 281.989 154.048C281.989 156.016 282.757 157.136 284.693 157.136ZM291.333 158H290.181V150.096H291.221V151.728H291.269C291.573 150.896 292.469 149.936 294.101 149.936C296.133 149.936 297.061 151.248 297.061 153.152V158H295.925V153.408C295.925 151.696 295.365 150.944 293.749 150.944C292.181 150.944 291.333 151.68 291.333 153.44V158ZM301.961 158.016C300.505 158.016 299.657 157.44 299.657 155.76V151.088H298.329V150.096H299.673L299.945 148.08H300.809V150.096H303.305V151.088H300.809V155.824C300.809 156.752 301.241 156.96 302.265 156.96H303.305V157.888C303.033 157.936 302.537 158.016 301.961 158.016ZM305.973 158H304.821V147.28H305.973V151.568H306.037C306.341 150.816 307.157 149.936 308.757 149.936C310.821 149.936 311.701 151.312 311.701 153.12V158H310.565V153.408C310.565 151.696 309.989 150.944 308.389 150.944C306.805 150.944 305.973 151.68 305.973 153.456V158Z" fill="#F0F0F0"/>
<path d="M170.705 158H168.321V150.32H165.905V148.608H166.385C167.393 148.608 168.017 148.24 168.529 147.28H170.705V158ZM181.139 158H172.755V156.56C172.755 154.48 174.163 153.616 175.651 152.896L177.507 152.016C178.451 151.568 178.787 151.216 178.787 150.512C178.787 149.744 178.435 149.312 177.011 149.312C175.459 149.312 175.139 149.744 175.139 150.896V151.168H172.739V150.912C172.739 148.832 174.019 147.12 177.203 147.12C180.035 147.12 181.171 148.56 181.171 150.496C181.171 152.352 179.859 153.296 178.467 153.92L176.851 154.624C175.971 155.024 175.315 155.36 175.315 155.872L177.043 155.84H181.139V158ZM185.597 152.432C183.869 152.432 182.781 151.424 182.781 149.776C182.781 148.128 183.869 147.12 185.597 147.12C187.309 147.12 188.397 148.128 188.397 149.776C188.397 151.424 187.309 152.432 185.597 152.432ZM186.061 158H183.869L191.597 147.28H193.773L186.061 158ZM185.597 150.8C186.349 150.8 186.605 150.608 186.605 149.776C186.605 148.944 186.349 148.752 185.597 148.752C184.845 148.752 184.589 148.944 184.589 149.776C184.589 150.608 184.845 150.8 185.597 150.8ZM192.061 158.16C190.333 158.16 189.245 157.152 189.245 155.504C189.245 153.856 190.333 152.848 192.061 152.848C193.789 152.848 194.861 153.856 194.861 155.504C194.861 157.152 193.789 158.16 192.061 158.16ZM192.061 156.528C192.813 156.528 193.069 156.336 193.069 155.504C193.069 154.672 192.813 154.48 192.061 154.48C191.309 154.48 191.053 154.672 191.053 155.504C191.053 156.336 191.309 156.528 192.061 156.528Z" fill="white"/>
<path d="M112.191 378.712C109.671 378.712 108.145 376.85 108.145 373.882C108.145 370.914 109.671 369.052 112.191 369.052C114.711 369.052 116.251 370.914 116.251 373.882C116.251 376.85 114.711 378.712 112.191 378.712ZM112.191 377.256C113.857 377.256 114.641 376.36 114.641 373.882C114.641 371.404 113.857 370.508 112.191 370.508C110.525 370.508 109.755 371.404 109.755 373.882C109.755 376.36 110.525 377.256 112.191 377.256Z" fill="#C1C1C1"/>
<line x1="124.996" y1="373.775" x2="409.996" y2="371.531" stroke="#CACACA"/>
<path d="M126.708 398H125.126L128.78 388.62H130.95L134.604 398H132.966L132.014 395.564H127.66L126.708 398ZM129.172 391.728L128.192 394.206H131.482L130.502 391.728L129.9 389.992H129.788L129.172 391.728ZM137.089 400.422H135.591V391.042H136.963V392.19H137.033C137.355 391.378 138.153 390.902 139.357 390.902C141.317 390.902 142.395 392.316 142.395 394.528C142.395 396.726 141.345 398.14 139.455 398.14C138.209 398.14 137.439 397.566 137.131 396.922H137.089V400.422ZM137.089 395.144C137.089 396.306 137.761 396.852 138.993 396.852C140.323 396.852 140.883 396.236 140.883 394.528C140.883 392.806 140.337 392.19 138.993 392.19C137.761 392.19 137.089 392.736 137.089 393.898V395.144ZM145.382 398H143.87V391H145.256V392.106H145.326C145.606 391.462 146.25 390.902 147.272 390.902C148.728 390.902 149.288 391.966 149.288 393.268V393.73H147.776V393.45C147.776 392.526 147.51 392.19 146.628 392.19C145.718 392.19 145.382 392.54 145.382 393.464V398ZM151.867 390.16H150.369L150.355 388.62H151.867V390.16ZM151.881 398H150.369V391H151.881V398ZM155.062 398H153.55V388.62H155.062V398Z" fill="#B6B6B6"/>
<path d="M212.296 398H210.784V388.62H212.926L215.068 393.772L215.894 396.012H216.006L216.818 393.772L218.918 388.62H221.06V398H219.562V392.456L219.618 390.888H219.52L218.932 392.456L216.832 397.44H215.012L212.898 392.456L212.338 390.888H212.212L212.296 392.456V398ZM224.766 398.14C223.52 398.14 222.554 397.496 222.554 396.278C222.554 395.13 223.394 394.528 224.878 394.318L227.314 393.954V393.576C227.314 392.54 226.838 392.232 225.746 392.232C224.64 392.232 224.206 392.582 224.206 393.506V393.716H222.75V393.576C222.75 392.022 223.968 390.902 225.83 390.902C227.776 390.902 228.756 392.078 228.756 393.772V398H227.356V396.908H227.286C226.88 397.566 226.082 398.14 224.766 398.14ZM224.024 396.166C224.024 396.712 224.374 396.936 225.256 396.936C226.236 396.936 227.314 396.544 227.314 395.144V395.018L225.102 395.354C224.304 395.466 224.024 395.648 224.024 396.166ZM231.277 400.38C230.899 400.38 230.465 400.324 230.227 400.254V399.022H231.179C231.781 399.022 231.991 398.924 232.215 398.406L232.481 397.818L229.527 391.042H231.193L232.593 394.416L233.223 395.928H233.335L233.909 394.416L235.183 391.042H236.849L233.559 398.826C233.041 400.058 232.369 400.38 231.277 400.38Z" fill="#B6B6B6"/>
<path d="M298.71 398.14C296.162 398.14 295.182 396.698 295.182 394.584V394.192H296.778V394.696C296.778 396.096 297.058 396.684 298.668 396.684C300.264 396.684 300.544 396.096 300.544 394.696V388.62H302.154V394.584C302.154 396.698 301.146 398.14 298.71 398.14ZM306.514 398.14C304.694 398.14 303.882 396.922 303.882 395.34V391.042H305.394V395.074C305.394 396.32 305.87 396.838 307.074 396.838C308.236 396.838 308.894 396.334 308.894 394.962V391.042H310.406V398H309.006V396.614H308.95C308.614 397.412 307.872 398.14 306.514 398.14ZM313.687 398H312.175V391.042H313.561V392.344H313.617C313.939 391.602 314.681 390.902 316.039 390.902C317.845 390.902 318.657 392.05 318.657 393.632V398H317.145V393.968C317.145 392.722 316.753 392.204 315.479 392.204C314.247 392.204 313.687 392.68 313.687 393.982V398ZM323.451 398.14C321.155 398.14 320.077 396.684 320.077 394.514C320.077 392.358 321.365 390.902 323.437 390.902C325.313 390.902 326.629 392.022 326.629 393.926C326.629 394.29 326.587 394.668 326.545 394.878H321.491C321.547 396.152 322.009 396.796 323.465 396.796C324.627 396.796 325.075 396.404 325.075 395.774V395.662H326.573V395.788C326.573 397.216 325.327 398.14 323.451 398.14ZM323.409 392.176C322.093 392.176 321.589 392.792 321.505 393.87H325.187C325.243 392.68 324.599 392.176 323.409 392.176Z" fill="#FFFAFA"/>
<path d="M379.71 398.14C377.162 398.14 376.182 396.698 376.182 394.584V394.192H377.778V394.696C377.778 396.096 378.058 396.684 379.668 396.684C381.264 396.684 381.544 396.096 381.544 394.696V388.62H383.154V394.584C383.154 396.698 382.146 398.14 379.71 398.14ZM387.514 398.14C385.694 398.14 384.882 396.922 384.882 395.34V391.042H386.394V395.074C386.394 396.32 386.87 396.838 388.074 396.838C389.236 396.838 389.894 396.334 389.894 394.962V391.042H391.406V398H390.006V396.614H389.95C389.614 397.412 388.872 398.14 387.514 398.14ZM394.687 398H393.175V388.62H394.687V398ZM397.516 400.38C397.138 400.38 396.704 400.324 396.466 400.254V399.022H397.418C398.02 399.022 398.23 398.924 398.454 398.406L398.72 397.818L395.766 391.042H397.432L398.832 394.416L399.462 395.928H399.574L400.148 394.416L401.422 391.042H403.088L399.798 398.826C399.28 400.058 398.608 400.38 397.516 400.38Z" fill="#B6B6B6"/>
<path d="M98.3457 319.381H96.8337V312.241H94.8597V311.163H95.2237C96.1057 311.163 96.6237 310.841 97.0157 310.001H98.3457V319.381ZM104.555 319.521C102.035 319.521 100.509 317.659 100.509 314.691C100.509 311.723 102.035 309.861 104.555 309.861C107.075 309.861 108.615 311.723 108.615 314.691C108.615 317.659 107.075 319.521 104.555 319.521ZM104.555 318.065C106.221 318.065 107.005 317.169 107.005 314.691C107.005 312.213 106.221 311.317 104.555 311.317C102.889 311.317 102.119 312.213 102.119 314.691C102.119 317.169 102.889 318.065 104.555 318.065ZM111.899 319.381H110.387V310.001H111.899V315.181H113.271L115.133 312.423H116.911L114.489 315.713L116.869 319.381H115.105L113.285 316.539H111.899V319.381Z" fill="#C1C1C1"/>
<line x1="125" y1="314.5" x2="410" y2="314.5" stroke="#AAAAAA" stroke-dasharray="3 3"/>
<path d="M98.8207 260.191V258.833H93.4867C93.4867 258.063 94.2147 257.615 95.1667 257.125L96.5387 256.425C97.7427 255.809 98.7927 254.983 98.7927 253.443C98.7927 251.889 97.8267 250.671 95.5167 250.671C92.9267 250.671 91.8347 252.127 91.8347 253.877V254.101H93.3467V253.905C93.3467 252.617 93.6967 252.057 95.4047 252.057C96.9587 252.057 97.2807 252.631 97.2807 253.499C97.2807 254.297 96.8747 254.717 95.8667 255.249L94.4247 255.991C93.1087 256.663 91.9047 257.475 91.9047 259.253V260.191H98.8207ZM104.555 260.331C107.075 260.331 108.615 258.469 108.615 255.501C108.615 252.533 107.075 250.671 104.555 250.671C102.035 250.671 100.509 252.533 100.509 255.501C100.509 258.469 102.035 260.331 104.555 260.331ZM104.555 258.875C102.889 258.875 102.119 257.979 102.119 255.501C102.119 253.023 102.889 252.127 104.555 252.127C106.221 252.127 107.005 253.023 107.005 255.501C107.005 257.979 106.221 258.875 104.555 258.875ZM111.899 260.191V257.349H113.285L115.105 260.191H116.869L114.489 256.523L116.911 253.233H115.133L113.271 255.991H111.899V250.811H110.387V260.191H111.899Z" fill="white"/>
<line x1="125" y1="255.5" x2="410" y2="255.5" stroke="#AAAAAA" stroke-dasharray="3 3"/>
<path d="M95.0795 201.14C92.6435 201.14 91.3835 200.062 91.3835 198.34V198.256H92.8815V198.34C92.8815 199.39 93.5815 199.754 95.1355 199.754C96.7875 199.754 97.3335 199.292 97.3335 197.976C97.3335 196.716 96.7315 196.226 95.1495 196.226C94.0015 196.226 93.3295 196.548 92.8675 196.814L91.5375 196.604L91.8595 191.62H98.3275V192.978H93.1895L92.9655 195.708H93.0075C93.4975 195.302 94.3795 194.924 95.6115 194.924C97.6135 194.924 98.8315 196.044 98.8315 197.934C98.8315 199.88 97.6695 201.14 95.0795 201.14ZM104.555 201.14C102.035 201.14 100.509 199.278 100.509 196.31C100.509 193.342 102.035 191.48 104.555 191.48C107.075 191.48 108.615 193.342 108.615 196.31C108.615 199.278 107.075 201.14 104.555 201.14ZM104.555 199.684C106.221 199.684 107.005 198.788 107.005 196.31C107.005 193.832 106.221 192.936 104.555 192.936C102.889 192.936 102.119 193.832 102.119 196.31C102.119 198.788 102.889 199.684 104.555 199.684ZM111.899 201H110.387V191.62H111.899V196.8H113.271L115.133 194.042H116.911L114.489 197.332L116.869 201H115.105L113.285 198.158H111.899V201Z" fill="#C1C1C1"/>
<line x1="125" y1="196.5" x2="410" y2="196.5" stroke="#AAAAAA" stroke-dasharray="3 3"/>
<path fill-rule="evenodd" clip-rule="evenodd" d="M218 235.517C214.686 235.517 212 238.203 212 241.517V257.657C212 260.971 214.686 263.657 218 263.657H278.103C281.416 263.657 284.103 260.971 284.103 257.657V252.09L288 249.102L284.103 246.114V241.517C284.103 238.203 281.416 235.517 278.103 235.517H218Z" fill="white"/>
<path d="M226.344 255.2V254.108C228.096 253.976 228.888 252.992 228.888 251.816C228.888 250.604 228.228 249.848 226.716 249.536L225.348 249.248C224.244 249.008 223.92 248.804 223.92 248.072C223.92 247.364 224.4 247.028 225.588 247.028C227.028 247.028 227.46 247.544 227.46 248.528V248.66H228.732V248.516C228.732 247.256 228.036 246.128 226.344 245.888V244.76H225.144V245.864C223.404 246.02 222.624 247.04 222.624 248.132C222.624 249.404 223.368 250.076 224.748 250.34L226.116 250.616C227.352 250.868 227.592 251.132 227.592 251.864C227.592 252.608 227.16 252.932 225.972 252.932C224.292 252.932 223.872 252.428 223.872 251.432V251.3H222.6V251.504C222.6 252.86 223.38 253.856 225.144 254.072V255.2H226.344ZM236.118 254V252.836H231.546C231.546 252.176 232.17 251.792 232.986 251.372L234.162 250.772C235.194 250.244 236.094 249.536 236.094 248.216C236.094 246.884 235.266 245.84 233.286 245.84C231.066 245.84 230.13 247.088 230.13 248.588V248.78H231.426V248.612C231.426 247.508 231.726 247.028 233.19 247.028C234.522 247.028 234.798 247.52 234.798 248.264C234.798 248.948 234.45 249.308 233.586 249.764L232.35 250.4C231.222 250.976 230.19 251.672 230.19 253.196V254H236.118ZM241.033 254.12C243.193 254.12 244.513 252.524 244.513 249.98C244.513 247.436 243.193 245.84 241.033 245.84C238.873 245.84 237.565 247.436 237.565 249.98C237.565 252.524 238.873 254.12 241.033 254.12ZM241.033 252.872C239.605 252.872 238.945 252.104 238.945 249.98C238.945 247.856 239.605 247.088 241.033 247.088C242.461 247.088 243.133 247.856 243.133 249.98C243.133 252.104 242.461 252.872 241.033 252.872ZM246.224 255.416C246.98 255.416 247.412 255.032 247.412 254.228V252.14H245.768V254H246.5V254.252C246.5 254.516 246.392 254.564 246.188 254.564H245.792V255.416H246.224ZM252.154 254.12C254.314 254.12 255.634 252.524 255.634 249.98C255.634 247.436 254.314 245.84 252.154 245.84C249.994 245.84 248.686 247.436 248.686 249.98C248.686 252.524 249.994 254.12 252.154 254.12ZM252.154 252.872C250.726 252.872 250.066 252.104 250.066 249.98C250.066 247.856 250.726 247.088 252.154 247.088C253.582 247.088 254.254 247.856 254.254 249.98C254.254 252.104 253.582 252.872 252.154 252.872ZM260.82 254.12C262.98 254.12 264.3 252.524 264.3 249.98C264.3 247.436 262.98 245.84 260.82 245.84C258.66 245.84 257.352 247.436 257.352 249.98C257.352 252.524 258.66 254.12 260.82 254.12ZM260.82 252.872C259.392 252.872 258.732 252.104 258.732 249.98C258.732 247.856 259.392 247.088 260.82 247.088C262.248 247.088 262.92 247.856 262.92 249.98C262.92 252.104 262.248 252.872 260.82 252.872ZM269.486 254.12C271.646 254.12 272.966 252.524 272.966 249.98C272.966 247.436 271.646 245.84 269.486 245.84C267.326 245.84 266.018 247.436 266.018 249.98C266.018 252.524 267.326 254.12 269.486 254.12ZM269.486 252.872C268.058 252.872 267.398 252.104 267.398 249.98C267.398 247.856 268.058 247.088 269.486 247.088C270.914 247.088 271.586 247.856 271.586 249.98C271.586 252.104 270.914 252.872 269.486 252.872Z" fill="#131313"/>
<path d="M168 327C168 320.373 173.373 315 180 315C186.627 315 192 320.373 192 327V373H168V327Z" fill="#D9D9D9"/>
<path d="M200 296C200 289.373 205.373 284 212 284C218.627 284 224 289.373 224 296V373H200V296Z" fill="#D9D9D9"/>
<path d="M232 327C232 320.373 237.373 315 244 315C250.627 315 256 320.373 256 327V373H232V327Z" fill="#D9D9D9"/>
<path d="M264 278C264 271.373 269.373 266 276 266C282.627 266 288 271.373 288 278V373H264V278Z" fill="#D9D9D9"/>
<path d="M296 210C296 203.373 301.373 198 308 198C314.627 198 320 203.373 320 210V373H296V210Z" fill="#2C9B7C"/>
<path d="M328 311C328 304.373 333.373 299 340 299C346.627 299 352 304.373 352 311V373H328V311Z" fill="#D9D9D9"/>
<g filter="url(#filter0_d_285_2507)">
<circle cx="308" cy="251" r="9" fill="#131313"/>
<circle cx="308" cy="251" r="6.5" stroke="white" stroke-width="5"/>
</g>
<defs>
<filter id="filter0_d_285_2507" x="286" y="232" width="44" height="44" filterUnits="userSpaceOnUse" color-interpolation-filters="sRGB">
<feFlood flood-opacity="0" result="BackgroundImageFix"/>
<feColorMatrix in="SourceAlpha" type="matrix" values="0 0 0 0 0 0 0 0 0 0 0 0 0 0 0 0 0 0 127 0" result="hardAlpha"/>
<feOffset dy="3"/>
<feGaussianBlur stdDeviation="6.5"/>
<feComposite in2="hardAlpha" operator="out"/>
<feColorMatrix type="matrix" values="0 0 0 0 0.290196 0 0 0 0 0.333333 0 0 0 0 0.407843 0 0 0 0.15 0"/>
<feBlend mode="normal" in2="BackgroundImageFix" result="effect1_dropShadow_285_2507"/>
<feBlend mode="normal" in="SourceGraphic" in2="effect1_dropShadow_285_2507" result="shape"/>
</filter>
</defs>
</svg>
