<svg width="101" height="24" viewBox="0 0 101 24" fill="none" xmlns="http://www.w3.org/2000/svg">
<path d="M57.9493 6.41425C59.0047 6.41425 59.8603 5.7551 59.8603 4.94199C59.8603 4.12888 59.0047 3.46973 57.9493 3.46973C56.8939 3.46973 56.0383 4.12888 56.0383 4.94199C56.0383 5.7551 56.8939 6.41425 57.9493 6.41425Z" fill="#E6F0ED"/>
<path d="M49.592 5.08371V17.8141H53.1486V4.36884H50.42C49.963 4.36884 49.5931 4.68862 49.5931 5.08371H49.592Z" fill="#E6F0ED"/>
<path d="M56.1748 8.6625V17.8132H59.7314V7.94763H57.0027C56.5457 7.94763 56.1758 8.26742 56.1758 8.6625H56.1748Z" fill="#E6F0ED"/>
<path d="M69.3604 7.71829C67.7404 7.71829 66.6 8.44379 66.0958 8.84065V7.94772H63.3672C62.9102 7.94772 62.5403 8.26751 62.5403 8.6626V21.7597H66.0969V17.4156C66.6368 17.769 67.3664 18.0197 68.3531 18.0197C71.671 18.0197 74.2182 15.542 74.2182 12.4212C74.2182 9.3004 71.591 7.71741 69.3614 7.71741L69.3604 7.71829ZM68.1923 16.9647C67.4627 16.9647 66.6891 16.3685 66.0958 15.7714V10.4812C66.6491 10.0055 67.5908 9.32432 68.4044 9.32432C69.6247 9.32432 70.7662 10.77 70.7662 12.881C70.7662 14.9919 69.6514 16.9647 68.1923 16.9647Z" fill="#E6F0ED"/>
<path d="M80.9893 7.71838C77.8579 7.71838 76.823 8.29241 76.823 8.29241L77.195 8.9807C77.195 8.9807 78.3631 8.61397 80.2741 8.61397C82.3971 8.61397 82.6092 9.60079 82.6092 10.817V11.384C82.1543 11.2688 81.2833 11.0917 80.1941 11.0917C78.5752 11.0917 75.7092 11.6426 75.7092 14.5101C75.7092 17.3776 78.2575 18.0207 79.9288 18.0207C80.9073 18.0207 81.9278 17.5813 82.6092 17.2163V17.8143H86.1658V10.8162C86.1658 8.75127 84.1227 7.71838 80.9903 7.71838H80.9893ZM80.7772 16.7123C79.2914 16.7123 78.3621 15.9549 78.3621 14.5553C78.3621 13.1557 80.0076 12.284 81.3079 12.284C81.9627 12.284 82.3674 12.4638 82.6082 12.6428V16.0639C82.1891 16.3783 81.5641 16.7123 80.7772 16.7123Z" fill="#E6F0ED"/>
<path d="M100.27 7.71829H97.8838L94.6818 14.0228L94.5937 13.874L90.9438 7.71741H87.3002L92.8671 17.1091L93.0003 17.3332L92.4173 18.4803C91.5187 20.0217 88.9447 19.9189 88.9447 19.9189V21.2096C88.9447 21.2096 90.0524 21.2902 90.8557 21.2096C91.6201 21.1334 93.3231 20.6932 94.151 19.1739L95.8519 15.9911L100.271 7.71829H100.27Z" fill="#E6F0ED"/>
<path d="M40.7982 4.36975H39.2889L38.0624 6.57549L31.8069 17.8141H34.2107L35.4495 15.5889H42.8988L44.0935 17.8141H48.0159L41.2368 5.18738L40.7972 4.36975H40.7982ZM42.3936 14.6481H35.9731L39.2407 8.77502L42.3936 14.6481Z" fill="#E6F0ED"/>
<path d="M27.8864 3.76392V20.2751C27.8608 22.3373 25.9211 24 23.5326 24H4.47509C2.07023 24 0.121338 22.3151 0.121338 20.2361V3.76392C0.121338 1.68486 2.07023 0 4.47509 0H23.5326C25.9375 0 27.8864 1.68486 27.8864 3.76392Z" fill="#E6F0ED"/>
<path d="M18.6775 13.4913C20.1038 11.1234 21.0506 8.62357 21.0506 8.62357H15.5441V6.94668H22.3304V5.92531H15.5441V3.22705H12.3851V5.92531H5.59781V6.94668H12.3841V8.62357H6.67677V9.52093H17.7051C17.7051 9.52093 17.0934 11.1456 16.0677 12.7533C13.1095 11.9632 10.3799 11.4122 8.18813 11.4122C2.93371 11.4122 1.76766 13.695 2.01562 15.782C2.21645 17.4474 3.64892 19.879 8.02828 19.879C12.0285 19.879 15.2572 17.8965 17.245 15.5367C21.0352 17.0452 25.0385 18.9037 27.885 20.275V16.3162C24.8756 15.4242 21.7064 14.3833 18.6744 13.4913H18.6775ZM7.39402 18.4688C3.69298 18.4688 3.1202 16.6652 3.05667 15.5889C2.99621 14.6473 3.73192 12.88 7.91045 12.88C9.46485 12.88 11.9291 13.5657 14.6967 14.5649C13.1331 16.341 10.6268 18.4688 7.39402 18.4688Z" fill="#53918C"/>
</svg>
