<svg width="125" height="24" viewBox="0 0 125 24" fill="none" xmlns="http://www.w3.org/2000/svg">
<g clip-path="url(#clip0_285_2483)">
<mask id="mask0_285_2483" style="mask-type:luminance" maskUnits="userSpaceOnUse" x="0" y="0" width="125" height="24">
<path d="M124.543 0H0.702881V24H124.543V0Z" fill="white"/>
</mask>
<g mask="url(#mask0_285_2483)">
<path fill-rule="evenodd" clip-rule="evenodd" d="M49.5691 18.7728C44.9929 22.184 38.3574 23.9986 32.6435 23.9986C24.6369 23.9986 17.4258 21.009 11.9682 16.0311C11.5402 15.6395 11.9212 15.1069 12.4364 15.4091C18.3233 18.8704 25.6042 20.9547 33.1238 20.9547C38.1964 20.9547 43.772 19.8909 48.9036 17.6927C49.6777 17.362 50.3271 18.2077 49.5691 18.7728Z" fill="#E6F0ED"/>
<path fill-rule="evenodd" clip-rule="evenodd" d="M51.4739 16.576C50.8876 15.8184 47.6047 16.2169 46.1289 16.3958C45.6822 16.45 45.6124 16.0556 46.0149 15.7696C48.635 13.9102 52.9282 14.4469 53.4259 15.0703C53.9276 15.6978 53.2931 20.0454 50.8393 22.1203C50.461 22.4388 50.1014 22.2694 50.2691 21.8479C50.8218 20.4534 52.0588 17.3336 51.4725 16.576H51.4739Z" fill="#E6F0ED"/>
<path fill-rule="evenodd" clip-rule="evenodd" d="M46.2339 2.63806V0.832877C46.2353 0.557762 46.4406 0.374804 46.6874 0.37616H54.7008C54.957 0.37616 55.1636 0.563183 55.1636 0.831521V2.38056C55.1609 2.64077 54.9436 2.97958 54.5599 3.51761L50.409 9.50508C51.9491 9.46849 53.5792 9.70159 54.9798 10.4971C55.2951 10.676 55.3809 10.9416 55.4051 11.2018V13.129C55.4051 13.3946 55.118 13.7023 54.8148 13.5423C52.3489 12.2372 49.0755 12.0949 46.348 13.5586C46.0689 13.709 45.7778 13.4055 45.7778 13.1398V11.3076C45.7778 11.0148 45.7832 10.5134 46.0756 10.0661L50.8839 3.09613H46.6968C46.4406 3.09613 46.2353 2.91182 46.2339 2.64077V2.63806ZM17.0033 13.9191H14.5656C14.3335 13.9042 14.1484 13.728 14.1296 13.503L14.1323 0.862692C14.1323 0.610617 14.3429 0.408686 14.6032 0.408686H16.8731C17.1106 0.419528 17.3011 0.60113 17.3159 0.832877V2.48221H17.3628C17.9545 0.885731 19.0693 0.141703 20.5706 0.141703C22.0718 0.141703 23.0512 0.887086 23.7341 2.48221C24.3257 0.885731 25.6686 0.141703 27.1015 0.141703C28.1264 0.141703 29.24 0.567249 29.9228 1.52541C30.6969 2.58927 30.5386 4.13154 30.5386 5.48814L30.5359 13.4651C30.5359 13.7172 30.3267 13.9191 30.0664 13.9191H27.6314C27.3859 13.9028 27.194 13.7077 27.194 13.4651V6.76478C27.194 6.23352 27.2383 4.90403 27.1243 4.39852C26.9431 3.54607 26.3971 3.30755 25.6914 3.30755C25.0998 3.30755 24.4853 3.70599 24.2345 4.34431C23.9836 4.98399 24.0077 6.0465 24.0077 6.76478V13.4651C24.0077 13.7172 23.7971 13.9191 23.5382 13.9191H21.1032C20.8577 13.9028 20.6658 13.7077 20.6658 13.4651L20.6631 6.76478C20.6631 5.35532 20.8912 3.2818 19.1619 3.2818C17.4326 3.2818 17.4782 5.30247 17.4782 6.76478V13.4651C17.4768 13.7172 17.2662 13.9191 17.0073 13.9191H17.0033ZM62.0822 2.72209C60.2845 2.72209 60.1704 5.1954 60.1704 6.73767C60.1704 8.27994 60.1476 11.5786 62.0594 11.5786C63.9712 11.5786 64.0396 8.91826 64.0396 7.29603C64.0396 6.23217 63.9926 4.95553 63.6747 3.94452C63.4023 3.06632 62.855 2.72073 62.0809 2.72073L62.0822 2.72209ZM62.0608 0.141703C65.679 0.141703 67.6351 3.2818 67.6351 7.27028C67.6351 11.2588 65.4738 14.1847 62.0608 14.1847C58.6477 14.1847 56.5763 11.046 56.5763 7.13611C56.5763 3.22624 58.5324 0.141703 62.0608 0.141703ZM72.328 13.9191H69.8984C69.6555 13.9028 69.461 13.7077 69.461 13.4651L69.457 0.820679C69.4784 0.588933 69.6797 0.408686 69.9252 0.408686H72.1858C72.3991 0.419528 72.5748 0.565894 72.6191 0.761049V2.69498H72.6647C73.3476 0.96569 74.3028 0.141703 75.9865 0.141703C77.0786 0.141703 78.1492 0.540144 78.832 1.63111C79.4693 2.64213 79.4693 4.34296 79.4693 5.56674V13.5207C79.4425 13.7443 79.2439 13.9177 79.0024 13.9177H76.5594C76.334 13.9042 76.1515 13.7361 76.1247 13.5207V6.65771C76.1247 5.27401 76.2843 3.25199 74.6006 3.25199C74.009 3.25199 73.463 3.65043 73.1893 4.263C72.8472 5.03413 72.8016 5.80526 72.8016 6.65771V13.4637C72.7975 13.7158 72.5869 13.9177 72.3266 13.9177L72.328 13.9191ZM42.3017 13.8879C42.1407 14.0343 41.9086 14.0438 41.7262 13.9449C40.9172 13.2645 40.771 12.9515 40.3282 12.3037C38.9907 13.6806 38.0422 14.0939 36.3088 14.0939C34.2562 14.0939 32.6597 12.8146 32.6597 10.2559C32.6597 8.2569 33.733 6.89759 35.2597 6.23081C36.5825 5.64399 38.4299 5.53828 39.8439 5.37701V5.05717C39.8439 4.46899 39.8895 3.77782 39.5474 3.27096C39.2509 2.81695 38.6808 2.63128 38.179 2.63128C37.2493 2.63128 36.4229 3.1124 36.2189 4.10985C36.176 4.33211 36.0164 4.55166 35.7963 4.56386L33.4324 4.30501C33.2325 4.25893 33.0112 4.09766 33.0689 3.79002C33.6069 0.93452 36.1317 0.0441251 38.4259 0.021086H38.607C39.7809 0.0359937 41.2808 0.361252 42.1944 1.24623C43.3804 2.36566 43.2663 3.85913 43.2663 5.48543V9.32212C43.2663 10.4768 43.7413 10.9823 44.1867 11.6043C44.3436 11.8293 44.3772 12.0949 44.1786 12.2589C43.6809 12.6804 42.7954 13.457 42.3098 13.8947L42.3031 13.8893L42.3017 13.8879ZM39.8453 7.88421C39.8453 8.84372 39.8681 9.64331 39.3891 10.4971C39.0014 11.1896 38.3856 11.6165 37.7014 11.6165C36.7663 11.6165 36.2203 10.8969 36.2203 9.83034C36.2203 7.73242 38.0824 7.3516 39.8466 7.3516V7.88556L39.8453 7.88421ZM10.3449 13.8879C10.1839 14.0343 9.9505 14.0438 9.76938 13.9449C8.95906 13.2645 8.81417 12.9515 8.37144 12.3037C7.03253 13.6806 6.08536 14.0939 4.35202 14.0939C2.29938 14.0939 0.702881 12.8146 0.702881 10.2559C0.702881 8.2569 1.77482 6.89759 3.30289 6.23081C4.62571 5.64399 6.47308 5.53828 7.88578 5.37701V5.05717C7.88578 4.46899 7.93274 3.77782 7.58929 3.27096C7.2928 2.81695 6.72262 2.63128 6.22086 2.63128C5.29114 2.63128 4.46337 3.1124 4.26079 4.10985C4.2192 4.33211 4.05821 4.55166 3.83685 4.56386L1.4743 4.30501C1.2744 4.25893 1.05304 4.09766 1.11073 3.79002C1.64736 0.93452 4.17225 0.0441251 6.46772 0.021086H6.64883C7.82273 0.0359937 9.32263 0.361252 10.2363 1.24623C11.4222 2.36566 11.3082 3.85913 11.3082 5.48543V9.32212C11.3082 10.4768 11.7831 10.9823 12.2285 11.6043C12.3842 11.8293 12.419 12.0949 12.2205 12.2589C11.7227 12.6804 10.8373 13.457 10.3503 13.8947L10.3449 13.8893V13.8879ZM7.88712 7.88421C7.88712 8.84372 7.90993 9.64331 7.43098 10.4971C7.04326 11.1896 6.42747 11.6165 5.74326 11.6165C4.80816 11.6165 4.26213 10.8969 4.26213 9.83034C4.26213 7.73242 6.12427 7.3516 7.88847 7.3516V7.88556L7.88712 7.88421ZM112.797 18.4537V17.5254C112.797 17.2611 112.926 17.0795 113.198 17.0958C113.708 17.169 114.429 17.2422 114.94 17.1351C115.608 16.9942 116.087 16.5158 116.37 15.8612C116.77 14.9382 117.034 14.1942 117.2 13.7063L112.129 1.01448C112.043 0.798996 112.018 0.399199 112.444 0.399199H114.217C114.555 0.399199 114.693 0.616038 114.768 0.828811L118.445 11.1381L121.955 0.828811C122.026 0.617393 122.171 0.399199 122.506 0.399199H124.178C124.601 0.399199 124.578 0.79764 124.493 1.01448L119.462 14.1021C118.812 15.8435 117.944 18.6191 115.99 19.1002C115.011 19.3591 113.775 19.2655 113.049 18.9579C112.867 18.8644 112.796 18.6164 112.796 18.4537H112.797ZM110.432 13.1466C110.432 13.3824 110.24 13.5762 110.005 13.5762H108.755C108.485 13.5762 108.3 13.3797 108.267 13.1466L108.141 12.2874C107.566 12.778 106.861 13.2103 106.096 13.5112C104.626 14.0885 102.93 14.1834 101.493 13.2916C100.455 12.6479 99.9018 11.3875 99.9018 10.0892C99.9018 9.0836 100.209 8.08749 100.888 7.36379C101.795 6.37447 103.11 5.88929 104.698 5.88929C105.657 5.88929 107.03 6.00313 108.028 6.33245V4.60181C108.028 2.8427 107.295 2.08106 105.362 2.08106C103.885 2.08106 102.754 2.30603 101.182 2.80069C100.929 2.80882 100.782 2.61638 100.782 2.37921V1.39259C100.782 1.15542 100.982 0.926388 101.199 0.857271C102.322 0.362607 103.913 0.0549671 105.605 -0.00195312C107.81 -0.00195312 110.431 0.500842 110.431 3.9269V13.1453L110.432 13.1466ZM108.029 10.6204V8.01024C107.191 7.7785 105.802 7.68228 105.264 7.68228C104.415 7.68228 103.485 7.88556 103 8.41275C102.637 8.80035 102.472 9.356 102.472 9.89268C102.472 10.5866 102.71 11.2845 103.265 11.6287C103.91 12.0719 104.911 12.0177 105.853 11.748C106.757 11.4892 107.607 11.0297 108.028 10.6218L108.029 10.6204ZM91.9985 2.12171C94.7729 2.12171 95.5282 4.32534 95.5282 6.8488C95.5443 8.54963 95.2344 10.0661 94.3623 10.9349C93.7103 11.5854 92.9805 11.7616 91.8831 11.7616C90.9064 11.7616 89.6225 11.2466 88.6619 10.531V3.31568C89.6614 2.54048 90.9359 2.12171 91.9985 2.12171ZM88.2366 18.9064H86.5623C86.3275 18.9064 86.137 18.7126 86.137 18.4768V0.850495C86.137 0.614683 86.3289 0.420883 86.5623 0.420883H87.8435C88.1132 0.420883 88.297 0.617393 88.3319 0.850495L88.466 1.77342C89.6668 0.697352 91.2123 0.00617833 92.684 0.00617833C96.8081 0.00617833 98.1644 3.43901 98.1644 7.00872C98.1644 10.8278 96.0903 13.8974 92.5807 13.8974C91.1036 13.8974 89.7218 13.3472 88.6592 12.3904V18.4768C88.6592 18.7126 88.4674 18.9064 88.2339 18.9064H88.2366Z" fill="#E6F0ED"/>
</g>
</g>
<defs>
<clipPath id="clip0_285_2483">
<rect width="123.84" height="24" fill="white" transform="translate(0.702881)"/>
</clipPath>
</defs>
</svg>
