<svg width="73" height="20" viewBox="0 0 73 20" fill="none" xmlns="http://www.w3.org/2000/svg">
<path d="M9.11031 0.683865H3.55708C3.1772 0.683865 2.85394 0.954058 2.79451 1.32179L0.548557 15.2688C0.509204 15.5162 0.681876 15.7478 0.93446 15.7868C0.958152 15.7903 0.982248 15.7923 1.00674 15.7923H3.65787C4.03815 15.7923 4.36141 15.5213 4.42044 15.1536L5.0264 11.3917C5.08503 11.0244 5.40829 10.7534 5.78817 10.753H7.54622C11.2045 10.753 13.3155 9.01934 13.8668 5.58352C14.1154 4.08035 13.8773 2.89929 13.1589 2.07219C12.3694 1.16408 10.9696 0.683472 9.11111 0.683472L9.11031 0.683865ZM9.75081 5.77781C9.44723 7.72934 7.92449 7.72934 6.45236 7.72934H5.61429L6.20218 4.08468C6.23792 3.86444 6.43148 3.70201 6.65916 3.70201H7.04306C8.04576 3.70201 8.99185 3.702 9.48055 4.26206C9.77209 4.59596 9.86124 5.0923 9.75 5.77781H9.75081ZM25.7102 5.71489H23.051C22.8233 5.71489 22.6294 5.87732 22.594 6.09756L22.4764 6.82594L22.2905 6.56204C21.7146 5.7436 20.4308 5.47026 19.1494 5.47026C16.2108 5.47026 13.7006 7.65029 13.2119 10.7081C12.9577 12.2333 13.3191 13.6921 14.2025 14.7091C15.0129 15.6444 16.1726 16.0341 17.552 16.0341C19.92 16.0341 21.2327 14.5432 21.2327 14.5432L21.1143 15.2668C21.0737 15.5142 21.246 15.7466 21.4982 15.786C21.5223 15.7899 21.5464 15.7915 21.5705 15.7915H23.9658C24.3461 15.7915 24.6693 15.5205 24.7284 15.1528L26.1656 6.23836C26.2061 5.99216 26.0346 5.76011 25.7833 5.72079C25.7592 5.71685 25.7347 5.71489 25.7102 5.71489ZM22.0033 10.7841C21.7467 12.2719 20.5408 13.2709 19.0029 13.2709C18.2306 13.2709 17.6134 13.0282 17.2171 12.5684C16.824 12.1118 16.6746 11.4621 16.7999 10.7384C17.0396 9.26319 18.2656 8.23158 19.7799 8.23158C20.5352 8.23158 21.1488 8.47738 21.5532 8.94108C21.9584 9.40949 22.119 10.0631 22.0029 10.7837L22.0033 10.7841ZM39.8734 5.71489H37.2009C36.9451 5.71528 36.7058 5.83956 36.5621 6.04643L32.8765 11.3638L31.314 6.25409C31.2156 5.93395 30.9149 5.71489 30.5735 5.71489H27.9473C27.6915 5.7141 27.4839 5.91665 27.4831 6.16717C27.4831 6.21752 27.4915 6.26707 27.508 6.31466L30.4515 14.7748L27.6843 18.6008C27.5361 18.8049 27.5851 19.0881 27.7935 19.2328C27.8718 19.2875 27.9658 19.3166 28.0617 19.3166H30.7309C30.9839 19.3166 31.2208 19.1958 31.365 18.9921L40.2532 6.42635C40.399 6.22066 40.3468 5.93828 40.1368 5.79551C40.0593 5.74281 39.9673 5.71449 39.873 5.71449L39.8734 5.71489Z" fill="#53918C"/>
<path d="M48.9034 0.684258H43.3494C42.9699 0.684258 42.6466 0.954845 42.5876 1.32218L40.3417 15.2692C40.3019 15.5162 40.4738 15.7478 40.7255 15.7868C40.7496 15.7903 40.7737 15.7923 40.7978 15.7923H43.6481C43.914 15.7923 44.1397 15.6023 44.181 15.3455L44.8183 11.3921C44.8769 11.0248 45.2002 10.7538 45.5801 10.7534H47.3373C50.9964 10.7534 53.1066 9.01974 53.6587 5.58392C53.9081 4.08075 53.6684 2.89969 52.95 2.07259C52.1617 1.16447 50.7623 0.683865 48.9038 0.683865L48.9034 0.684258ZM49.5439 5.77821C49.2411 7.72973 47.7184 7.72973 46.2455 7.72973H45.4082L45.9969 4.08507C46.0318 3.86483 46.2254 3.7024 46.4531 3.7024H46.837C47.8389 3.7024 48.7858 3.7024 49.2745 4.26245C49.566 4.59636 49.6543 5.09269 49.5431 5.77821H49.5439ZM65.5025 5.71528H62.8449C62.6172 5.71449 62.4233 5.87732 62.3888 6.09795L62.2711 6.82634L62.0844 6.56244C61.5085 5.74399 60.2255 5.47065 58.9441 5.47065C56.0055 5.47065 53.4965 7.65068 53.0074 10.7085C52.754 12.2337 53.1138 13.6925 53.9973 14.7095C54.8092 15.6448 55.9673 16.0345 57.3467 16.0345C59.7147 16.0345 61.0275 14.5436 61.0275 14.5436L60.909 15.2672C60.8684 15.5146 61.0407 15.747 61.2929 15.7864C61.3174 15.7903 61.3423 15.7923 61.3668 15.7919H63.7613C64.1412 15.7919 64.464 15.5209 64.5231 15.1532L65.9611 6.23875C66 5.99098 65.8266 5.75893 65.5736 5.72079C65.5499 5.71725 65.5262 5.71528 65.5025 5.71567V5.71528ZM61.7956 10.7845C61.5406 12.2723 60.3331 13.2712 58.7952 13.2712C58.0245 13.2712 57.4057 13.0286 57.0094 12.5688C56.6163 12.1122 56.4685 11.4625 56.5922 10.7388C56.8335 9.26358 58.0579 8.23197 59.5722 8.23197C60.3275 8.23197 60.9411 8.47778 61.3455 8.94147C61.7523 9.40989 61.9129 10.0635 61.7952 10.7841L61.7956 10.7845ZM68.6375 1.06693L66.3582 15.2692C66.3185 15.5162 66.4903 15.7478 66.7421 15.7868C66.7662 15.7903 66.7903 15.7923 66.8144 15.7923H69.1057C69.4864 15.7923 69.8097 15.5217 69.8683 15.1536L72.1159 1.20734C72.1556 0.959958 71.9833 0.727914 71.7308 0.688978C71.7071 0.685438 71.6834 0.683472 71.6593 0.683472H69.0933C68.8656 0.684258 68.6724 0.846689 68.6371 1.06693H68.6375Z" fill="#E6F0ED"/>
</svg>
