<svg width="118" height="32" viewBox="0 0 118 32" fill="none" xmlns="http://www.w3.org/2000/svg">
<path d="M5.97488 18.4682C6.0875 18.7344 6.04996 19.1128 6.01242 19.3029C5.8998 19.6832 5.67455 20.0616 4.88806 20.0616C4.17666 20.0616 3.76371 19.6433 3.76371 19.0367V17.9357H0.728516V18.8085C0.728516 21.3908 2.71444 22.1494 4.85052 22.1494C6.98661 22.1494 8.599 21.4288 8.85991 19.5292C9.01007 18.5423 8.89745 17.8977 8.85991 17.6315C8.37187 15.2394 4.06216 14.5188 3.76371 13.1516C3.72617 12.9234 3.72617 12.6952 3.76371 12.545C3.83879 12.1647 4.10158 11.7863 4.81298 11.7863C5.48684 11.7863 5.86225 12.2046 5.86225 12.8112V13.5319H8.6722V12.7352C8.6722 10.229 6.46103 9.85059 4.84865 9.85059C2.82518 9.85059 1.17525 10.5332 0.876803 12.3948C0.801721 12.8892 0.801721 13.3436 0.914344 13.9521C1.36484 16.3423 5.41176 16.9888 5.973 18.4701" fill="#E6F0ED"/>
<path d="M11.9358 21.733L14.0343 10.267H19.0573L21.1559 21.733H18.1188L16.5834 11.2919H16.5458L14.971 21.733H11.9358Z" fill="#E6F0ED"/>
<path d="M36.5218 10.267L36.7846 21.733H33.9371L33.862 11.406H33.7869L31.9136 21.733H29.0267L27.1534 11.406H27.0783L27.0032 21.733H24.1558L24.4167 10.267H29.0642L30.4514 19.0367H30.4889L31.9136 10.267H36.5218Z" fill="#E6F0ED"/>
<path d="M44.9559 18.4111C45.0686 18.6773 45.031 19.0176 44.9935 19.2458C44.9184 19.6261 44.6556 20.0045 43.9067 20.0045C43.1577 20.0045 42.7823 19.5862 42.7823 18.9796V17.8786H39.7847V18.7514C39.7847 21.2956 41.7706 22.0543 43.8691 22.0543C45.9677 22.0543 47.5801 21.3698 47.841 19.4721C47.9911 18.4852 47.8785 17.8406 47.841 17.6124C47.3529 15.2204 43.1183 14.5377 42.8199 13.2086C42.7448 12.9804 42.7823 12.7522 42.8199 12.602C42.8949 12.2217 43.1577 11.8433 43.8316 11.8433C44.5055 11.8433 44.8809 12.2616 44.8809 12.8682V13.5889H47.6908V12.7922C47.6908 10.324 45.4796 9.94562 43.9048 9.94562C41.9189 9.94562 40.2689 10.5902 39.9705 12.4518C39.8954 12.9462 39.8579 13.4006 40.008 13.9711C40.4191 16.2871 44.3928 16.9317 44.9541 18.413" fill="#E6F0ED"/>
<path d="M54.8905 19.7964C55.6769 19.7964 55.9397 19.2639 55.9773 18.9616C56.0148 18.8475 56.0148 18.6574 56.0148 18.5071V10.0778H58.8998V18.317C58.8998 18.5452 58.8623 18.9616 58.8623 19.0757C58.6746 21.2016 56.989 21.9222 54.8886 21.9222C52.7882 21.9222 51.1401 21.2377 50.9543 19.0757C50.9543 18.9616 50.9167 18.5433 50.9167 18.317V10.0778H53.8018V18.5813C53.8018 18.7334 53.8018 18.8855 53.8393 19.0377C53.8769 19.2658 54.1021 19.7964 54.8886 19.7964" fill="#E6F0ED"/>
<path d="M71.4184 10.324V21.676H67.3715L64.5991 12.3358H64.524L64.6742 21.676H61.8999V10.324H66.097L68.7211 19.3219H68.7586L68.6085 10.324H71.4184Z" fill="#E6F0ED"/>
<path d="M78.4297 19.9304C79.2537 19.9304 79.5165 19.3979 79.5916 19.0956C79.6291 18.9815 79.6292 18.7914 79.6292 18.6773V17.0078H78.4673V15.3363H82.4766V18.4111C82.4766 18.6392 82.4766 18.7914 82.4391 19.1698C82.2514 21.2576 80.4532 22.0163 78.4297 22.0163C76.4063 22.0163 74.6437 21.2576 74.456 19.1698C74.4185 18.7895 74.4185 18.6373 74.4185 18.4111V13.5889C74.4185 13.3987 74.456 13.0203 74.456 12.8302C74.7188 10.6663 76.4044 9.98364 78.4297 9.98364C80.4551 9.98364 82.2157 10.6663 82.4016 12.8302C82.4391 13.1724 82.4391 13.5889 82.4391 13.5889V13.9692H79.5916V13.3246C79.5916 13.3246 79.5916 13.0584 79.5541 12.8682C79.5165 12.602 79.2913 12.0335 78.4297 12.0335C77.5682 12.0335 77.3804 12.602 77.3054 12.8682C77.2678 13.0203 77.2678 13.2105 77.2678 13.4006V18.6392C77.2678 18.7914 77.2678 18.9435 77.3054 19.0576C77.3054 19.4379 77.6057 19.9304 78.4297 19.9304Z" fill="#E6F0ED"/>
<path d="M116.815 11.2158C116.44 8.25522 115.391 5.5589 113.555 3.58515C111.607 1.72549 108.945 0.662552 106.022 0.282253C103.212 -0.0980458 101.3 0.0160439 101.3 0.0160439C101.3 0.0160439 99.3889 -0.0600159 96.577 0.282253C93.6545 0.662552 90.9928 1.72549 89.0444 3.58515C87.2087 5.5589 86.1594 8.25522 85.784 11.2158C85.4086 14.0624 85.4837 16 85.4837 16C85.4837 16 85.4086 17.9357 85.7465 20.7842C86.1219 23.7448 87.1711 26.4411 89.0069 28.4149C90.9553 30.2745 93.6169 31.3375 96.5395 31.7178C99.3494 32.098 101.262 31.984 101.262 31.984C101.262 31.984 103.173 32.06 105.985 31.7178C108.907 31.3375 111.569 30.2745 113.517 28.4149C115.353 26.4411 116.402 23.7448 116.778 20.7842C117.153 17.9376 117.041 16 117.041 16C117.041 16 117.191 14.0643 116.815 11.2158Z" fill="#E6F0ED"/>
<path d="M91.3593 11.3299H94.1993C94.6486 11.3299 95.0211 11.406 95.3955 11.5581C95.7699 11.7102 96.0676 11.9384 96.3297 12.2027C96.5918 12.467 96.8164 12.7712 96.9643 13.1515C97.1141 13.5318 97.189 13.9102 97.189 14.3286C97.189 14.7469 97.1141 15.1253 96.9643 15.5056C96.8146 15.8859 96.5899 16.1901 96.3297 16.4544C96.0695 16.7187 95.7325 16.9488 95.3955 17.099C95.0585 17.2512 94.6486 17.3272 94.1993 17.3272H92.9281V19.7193H91.3949V11.328H91.3574L91.3593 11.3299ZM92.8925 12.7731V15.8479H94.0888C94.3135 15.8479 94.5381 15.8098 94.7234 15.7338C94.9088 15.6577 95.0604 15.5436 95.2102 15.3915C95.36 15.2394 95.4348 15.0873 95.5097 14.8971C95.5846 14.707 95.6221 14.5168 95.6221 14.2905C95.6221 14.0643 95.5846 13.8722 95.5097 13.684C95.4348 13.4938 95.3225 13.3417 95.2102 13.1896C95.0604 13.0374 94.9107 12.9234 94.7234 12.8473C94.5362 12.7712 94.3116 12.7332 94.0888 12.7332H92.8925V12.7712V12.7731ZM100.742 19.7212C100.33 19.7212 99.9578 19.6451 99.546 19.493C99.1715 19.3409 98.799 19.1127 98.4995 18.8484C98.1999 18.5442 97.9397 18.2019 97.7525 17.7855C97.5653 17.369 97.453 16.8747 97.453 16.3422C97.453 15.8098 97.5278 15.3173 97.7151 14.899C97.9023 14.4807 98.1644 14.1403 98.462 13.8361C98.7597 13.5318 99.1341 13.3417 99.5085 13.1915C99.9204 13.0393 100.293 12.9633 100.742 12.9633C101.192 12.9633 101.602 13.0393 101.938 13.1915C102.313 13.3436 102.611 13.5718 102.873 13.8361V12.9633H104.406V19.7212H102.873V18.7724C102.648 19.0766 102.313 19.3048 101.938 19.493C101.564 19.6451 101.192 19.7212 100.742 19.7212ZM101.004 18.316C101.304 18.316 101.564 18.278 101.789 18.1639C102.013 18.0498 102.238 17.9357 102.423 17.7455C102.609 17.5554 102.723 17.3652 102.835 17.139C102.948 16.9108 102.985 16.6446 102.985 16.3803C102.985 16.116 102.948 15.8479 102.835 15.6216C102.723 15.3934 102.611 15.1652 102.423 15.015C102.236 14.8249 102.049 14.7108 101.789 14.5967C101.527 14.4446 101.265 14.4065 101.004 14.4065C100.744 14.4065 100.48 14.4446 100.22 14.5586C99.9578 14.6727 99.7706 14.7868 99.5853 14.977C99.3999 15.1671 99.2483 15.3573 99.1734 15.5835C99.0611 15.8117 99.0236 16.0779 99.0236 16.3422C99.0236 16.6066 99.0611 16.8728 99.1734 17.1009C99.2857 17.3291 99.4355 17.5573 99.5853 17.7474C99.7725 17.9376 99.9971 18.0517 100.22 18.1658C100.445 18.2418 100.707 18.3179 101.004 18.3179M106.536 13.0032L108.405 17.5972L110.123 13.0032H111.731L107.807 22.7978H106.237L107.62 19.4189L104.928 13.0032H106.536Z" fill="#00152E"/>
</svg>
