<svg width="152" height="40" viewBox="0 0 152 40" fill="none" xmlns="http://www.w3.org/2000/svg">
<g opacity="0.9">
<path d="M33.2318 19.9922C33.2318 26.8046 27.7092 32.3272 20.8968 32.3272C14.0843 32.3272 8.56177 26.8046 8.56177 19.9922C8.56177 13.1797 14.0843 7.65717 20.8968 7.65717C27.7092 7.65717 33.2318 13.1797 33.2318 19.9922Z" stroke="#E6F0ED" stroke-width="3"/>
<path d="M25.617 24.7123C23.0719 27.2574 20.2076 28.8981 17.6934 29.5446C15.1415 30.2008 13.244 29.7837 12.1747 28.7144C11.1054 27.6451 10.6883 25.7476 11.3445 23.1957C11.991 20.6815 13.6317 17.8172 16.1768 15.2721C18.7218 12.727 21.5861 11.0864 24.1003 10.4399C26.6522 9.78365 28.5497 10.2008 29.619 11.2701C30.6883 12.3394 31.1054 14.2369 30.4492 16.7888C29.8027 19.303 28.162 22.1672 25.617 24.7123Z" stroke="#E6F0ED" stroke-width="3"/>
<path d="M25.6167 15.2721C28.1618 17.8172 29.8025 20.6814 30.449 23.1956C31.1052 25.7475 30.6881 27.645 29.6188 28.7143C28.5495 29.7836 26.652 30.2008 24.1001 29.5445C21.5859 28.898 18.7216 27.2574 16.1765 24.7123C13.6314 22.1672 11.9907 19.3029 11.3442 16.7887C10.688 14.2368 11.1051 12.3393 12.1744 11.27C13.2437 10.2007 15.1412 9.7836 17.6932 10.4398C20.2073 11.0863 23.0716 12.727 25.6167 15.2721Z" stroke="#E6F0ED" stroke-width="3"/>
<path d="M53.5067 28.5333C57.4317 28.5333 60.0817 26.4833 60.0817 23.2083C60.0817 16.2833 50.8817 19.2333 50.8817 15.5833C50.8817 14.5583 51.8067 13.8583 53.2817 13.8583C54.9567 13.8583 56.0067 14.7583 56.1317 16.1333H59.7067C59.6067 12.8083 57.0567 10.6333 53.2817 10.6333C49.7317 10.6333 47.2317 12.6833 47.2317 15.5833C47.2317 22.4583 56.3067 19.8333 56.3067 23.2583C56.3067 24.5833 55.1817 25.2833 53.5067 25.2833C51.6567 25.2833 50.4817 24.1583 50.3317 22.3833H46.7317C46.8817 26.1083 49.5317 28.5333 53.5067 28.5333Z" fill="#E6F0ED"/>
<path d="M60.9319 33.4333H64.4069V27.2083C65.0819 28.0583 66.3069 28.5333 67.7319 28.5333C71.3569 28.5333 73.8069 25.9583 73.8069 22.0333C73.8069 18.1083 71.5569 15.5333 68.0319 15.5333C66.4069 15.5333 65.1569 16.1333 64.4069 17.1083V15.7333H60.9319V33.4333ZM67.3069 25.5333C65.4319 25.5333 64.2069 24.1333 64.2069 22.0333C64.2069 19.9083 65.4319 18.5083 67.3069 18.5083C69.1319 18.5083 70.3819 19.9083 70.3819 22.0333C70.3819 24.1333 69.1319 25.5333 67.3069 25.5333Z" fill="#E6F0ED"/>
<path d="M74.6477 28.3333H78.1227V21.4333C78.1227 19.8083 79.1977 18.6333 80.7227 18.6333C82.1727 18.6333 83.1727 19.7333 83.1727 21.2583V28.3333H86.6477V20.4833C86.6477 17.5833 84.7977 15.5333 81.9727 15.5333C80.2227 15.5333 78.8477 16.2583 78.1227 17.4833V10.2583H74.6477V28.3333Z" fill="#E6F0ED"/>
<path d="M96.3688 24.0583C96.0938 25.1333 95.1688 25.6833 93.7688 25.6833C92.0188 25.6833 90.8938 24.5833 90.6438 22.8083H99.6938C99.7188 22.5333 99.7438 22.1583 99.7438 21.6833C99.7438 18.8083 97.9688 15.5333 93.5188 15.5333C89.2438 15.5333 87.2938 18.8083 87.2938 22.0083C87.2938 25.1833 89.4938 28.5333 93.7688 28.5333C96.8688 28.5333 99.2688 26.7833 99.7688 24.0583H96.3688ZM93.5188 18.0833C95.1938 18.0833 96.1688 19.2083 96.2688 20.6083H90.6938C90.9938 18.8583 91.9438 18.0833 93.5188 18.0833Z" fill="#E6F0ED"/>
<path d="M108.857 18.6333V15.7333H107.065C105.54 15.7333 104.59 16.2583 103.915 17.8333V15.7333H100.414V28.3333H103.915V22.2083C103.915 20.0583 104.69 18.6333 106.415 18.6333H108.857Z" fill="#E6F0ED"/>
<path d="M120.857 15.7333H117.357V22.6333C117.357 24.2333 116.282 25.4333 114.757 25.4333C113.332 25.4333 112.332 24.3333 112.332 22.8083V15.7333H108.857V23.5833C108.857 26.4583 110.707 28.5333 113.532 28.5333C115.257 28.5333 116.657 27.7833 117.357 26.5833V28.3333H120.857V15.7333Z" fill="#E6F0ED"/>
<path d="M122.358 28.3333H125.833V10.2583H122.358V28.3333Z" fill="#E6F0ED"/>
<path d="M135.754 24.0583C135.479 25.1333 134.554 25.6833 133.154 25.6833C131.404 25.6833 130.279 24.5833 130.029 22.8083H139.079C139.104 22.5333 139.129 22.1583 139.129 21.6833C139.129 18.8083 137.354 15.5333 132.904 15.5333C128.629 15.5333 126.679 18.8083 126.679 22.0083C126.679 25.1833 128.879 28.5333 133.154 28.5333C136.254 28.5333 138.654 26.7833 139.154 24.0583H135.754ZM132.904 18.0833C134.579 18.0833 135.554 19.2083 135.654 20.6083H130.079C130.379 18.8583 131.329 18.0833 132.904 18.0833Z" fill="#E6F0ED"/>
</g>
</svg>
