<svg width="116" height="24" viewBox="0 0 116 24" fill="none" xmlns="http://www.w3.org/2000/svg">
<path fill-rule="evenodd" clip-rule="evenodd" d="M18.2407 23.8266H11.9509L7.23435 6.55962C7.01048 5.76534 6.53514 5.06315 5.83594 4.7322C4.09099 3.9005 2.16817 3.2386 0.0705566 2.90477V2.23999H10.2029C11.6013 2.23999 12.6501 3.2386 12.8249 4.39837L15.2722 16.8536L21.5589 2.23999H27.6739L18.2407 23.8266ZM31.1695 23.8266H25.2294L30.1207 2.23999H36.0609L31.1695 23.8266ZM43.7467 8.22014C43.9215 7.05749 44.9703 6.39271 46.1939 6.39271C48.1167 6.2258 50.2113 6.55962 51.9593 7.38844L53.0081 2.74074C51.2601 2.07596 49.3372 1.74213 47.5923 1.74213C41.8269 1.74213 37.6317 4.7322 37.6317 8.88204C37.6317 12.039 40.6033 13.6967 42.7009 14.6953C44.9703 15.691 45.8443 16.3558 45.6695 17.3515C45.6695 18.8451 43.9215 19.5099 42.1765 19.5099C40.0789 19.5099 37.9813 19.012 36.0615 18.1803L35.0127 22.8309C37.1103 23.6597 39.3797 23.9936 41.4773 23.9936C47.9419 24.1576 51.9593 21.1704 51.9593 16.6867C51.9593 11.0404 43.7467 10.7095 43.7467 8.22014ZM72.7457 23.8266L68.0292 2.23999H62.963C61.9142 2.23999 60.8654 2.90477 60.5158 3.9005L51.7818 23.8266H57.8968L59.1173 20.6725H66.6307L67.3299 23.8266H72.7457ZM63.8401 8.05338L65.585 16.189H60.6936L63.8401 8.05338Z" fill="#E6F0ED"/>
<path fill-rule="evenodd" clip-rule="evenodd" d="M94.2244 21.1335C91.9494 22.9209 88.9985 24 85.7739 24C78.5787 24 72.7458 18.6274 72.7458 12C72.7458 5.37258 78.5787 0 85.7739 0C88.9985 0 91.9494 1.07905 94.2244 2.86652C96.4993 1.07905 99.4503 0 102.675 0C109.87 0 115.703 5.37258 115.703 12C115.703 18.6274 109.87 24 102.675 24C99.4503 24 96.4993 22.9209 94.2244 21.1335Z" fill="#E1E1E1"/>
<path fill-rule="evenodd" clip-rule="evenodd" d="M94.2246 21.1335C97.0259 18.9325 98.8022 15.6573 98.8022 12C98.8022 8.34269 97.0259 5.06751 94.2246 2.86649C96.4996 1.07904 99.4505 0 102.675 0C109.87 0 115.703 5.37258 115.703 12C115.703 18.6274 109.87 24 102.675 24C99.4505 24 96.4996 22.921 94.2246 21.1335Z" fill="#CBCBCB"/>
<path fill-rule="evenodd" clip-rule="evenodd" d="M94.2242 21.1336C97.0255 18.9326 98.8018 15.6574 98.8018 12.0001C98.8018 8.34286 97.0255 5.06772 94.2243 2.8667C91.423 5.06772 89.6467 8.34287 89.6467 12.0001C89.6467 15.6574 91.423 18.9326 94.2242 21.1336Z" fill="#CBCBCB"/>
</svg>
