<svg width="42" height="42" viewBox="0 0 42 42" fill="none" xmlns="http://www.w3.org/2000/svg">
<rect width="42" height="42" rx="21" fill="#03A300"/>
<g clip-path="url(#clip0_285_2676)">
<path d="M24.3378 19.9022C23.396 19.3817 22.3948 18.9852 21.4034 18.5738C20.8284 18.3358 20.2782 18.0583 19.7925 17.6716C18.8358 16.9083 19.0192 15.6691 20.1394 15.1784C20.4567 15.0396 20.7888 14.995 21.1258 14.9751C22.4245 14.9057 23.6588 15.1437 24.8335 15.7087C25.4184 15.9913 25.6117 15.9021 25.81 15.2924C26.0182 14.648 26.1917 13.9937 26.385 13.3444C26.5139 12.9082 26.3552 12.6207 25.9438 12.4373C25.1904 12.1052 24.4171 11.8672 23.6042 11.7384C22.5435 11.5748 22.5435 11.5698 22.5385 10.5041C22.5336 9.0022 22.5336 9.0022 21.0267 9.0022C20.8086 9.0022 20.5905 8.99725 20.3724 9.0022C19.6685 9.02203 19.5496 9.14595 19.5297 9.85477C19.5198 10.172 19.5297 10.4892 19.5248 10.8114C19.5198 11.7532 19.5149 11.7384 18.6127 12.0655C16.4317 12.8586 15.0835 14.3456 14.9398 16.7249C14.8109 18.8315 15.9113 20.2541 17.6412 21.2901C18.7069 21.9295 19.8866 22.3062 21.0168 22.8069C21.4579 23.0002 21.8793 23.2232 22.2461 23.5306C23.3316 24.4277 23.1333 25.9197 21.8446 26.4848C21.1556 26.7872 20.4269 26.8615 19.6784 26.7674C18.5235 26.6236 17.4182 26.3212 16.3772 25.781C15.7675 25.4637 15.5891 25.548 15.3809 26.2072C15.2025 26.7773 15.0438 27.3523 14.8852 27.9272C14.6721 28.7005 14.7514 28.8839 15.49 29.2457C16.4317 29.7018 17.438 29.9347 18.464 30.0983C19.267 30.2272 19.2918 30.2619 19.3017 31.0946C19.3067 31.4713 19.3067 31.853 19.3116 32.2297C19.3166 32.7056 19.5446 32.9832 20.0353 32.9931C20.5905 33.003 21.1506 33.003 21.7058 32.9881C22.1618 32.9782 22.3948 32.7304 22.3948 32.2694C22.3948 31.7539 22.4196 31.2334 22.3997 30.7179C22.3749 30.1925 22.603 29.9248 23.1086 29.786C24.2734 29.4688 25.2648 28.8442 26.0281 27.9124C28.1496 25.3348 27.3417 21.5627 24.3378 19.9022Z" fill="white"/>
</g>
<defs>
<clipPath id="clip0_285_2676">
<rect width="24" height="24" fill="white" transform="translate(9 9)"/>
</clipPath>
</defs>
</svg>
