<svg width="32" height="32" viewBox="0 0 32 32" fill="none" xmlns="http://www.w3.org/2000/svg">
<rect width="32" height="32" rx="16" fill="#006022"/>
<path d="M14.4639 16.8322C14.4159 16.8322 13.3599 16.8322 12.8799 16.8322C12.6239 16.8322 12.5439 16.7362 12.5439 16.4962C12.5439 15.8562 12.5439 15.2002 12.5439 14.5602C12.5439 14.3042 12.6399 14.2242 12.8799 14.2242H14.4639C14.4639 14.1762 14.4639 13.2482 14.4639 12.8162C14.4639 12.1762 14.5759 11.5682 14.8959 11.0082C15.2319 10.4322 15.7119 10.0482 16.3199 9.82421C16.7199 9.68021 17.1199 9.61621 17.5519 9.61621H19.1199C19.3439 9.61621 19.4399 9.71221 19.4399 9.93621V11.7602C19.4399 11.9842 19.3439 12.0802 19.1199 12.0802C18.6879 12.0802 18.2559 12.0802 17.8239 12.0962C17.3919 12.0962 17.1679 12.3042 17.1679 12.7522C17.1519 13.2322 17.1679 13.6962 17.1679 14.1922H19.0239C19.2799 14.1922 19.3759 14.2882 19.3759 14.5442V16.4802C19.3759 16.7362 19.2959 16.8162 19.0239 16.8162C18.4479 16.8162 17.2159 16.8162 17.1679 16.8162V22.0322C17.1679 22.3042 17.0879 22.4002 16.7999 22.4002C16.1279 22.4002 15.4719 22.4002 14.7999 22.4002C14.5599 22.4002 14.4639 22.3042 14.4639 22.0642C14.4639 20.3842 14.4639 16.8802 14.4639 16.8322Z" fill="#EAECF0"/>
</svg>
