<svg width="32" height="32" viewBox="0 0 32 32" fill="none" xmlns="http://www.w3.org/2000/svg">
<rect width="32" height="32" rx="16" fill="#006022"/>
<g clip-path="url(#clip0_285_2795)">
<path d="M19.6689 8H12.331C9.94287 8 8 9.94287 8 12.331V19.669C8 22.0571 9.94287 24 12.331 24H19.669C22.0571 24 24 22.0571 24 19.669V12.331C24 9.94287 22.0571 8 19.6689 8ZM23.062 19.669C23.062 21.5399 21.5399 23.062 19.6689 23.062H12.331C10.4601 23.062 8.93799 21.5399 8.93799 19.669V12.331C8.93799 10.4601 10.4601 8.93799 12.331 8.93799H19.669C21.5399 8.93799 23.062 10.4601 23.062 12.331V19.669Z" fill="white"/>
<path d="M15.9999 11.625C13.5875 11.625 11.625 13.5875 11.625 15.9999C11.625 18.4122 13.5875 20.3747 15.9999 20.3747C18.4122 20.3747 20.3747 18.4122 20.3747 15.9999C20.3747 13.5875 18.4122 11.625 15.9999 11.625ZM15.9999 19.4368C14.1049 19.4368 12.563 17.895 12.563 15.9999C12.563 14.1049 14.1049 12.563 15.9999 12.563C17.895 12.563 19.4368 14.1049 19.4368 15.9999C19.4368 17.895 17.895 19.4368 15.9999 19.4368Z" fill="white"/>
<path d="M20.4795 10.0713C19.7666 10.0713 19.1868 10.6512 19.1868 11.364C19.1868 12.0769 19.7666 12.6569 20.4795 12.6569C21.1924 12.6569 21.7723 12.0769 21.7723 11.364C21.7723 10.6511 21.1924 10.0713 20.4795 10.0713ZM20.4795 11.7187C20.2839 11.7187 20.1248 11.5596 20.1248 11.364C20.1248 11.1683 20.2839 11.0093 20.4795 11.0093C20.6752 11.0093 20.8343 11.1683 20.8343 11.364C20.8343 11.5596 20.6752 11.7187 20.4795 11.7187Z" fill="white"/>
</g>
<defs>
<clipPath id="clip0_285_2795">
<rect width="16" height="16" fill="white" transform="translate(8 8)"/>
</clipPath>
</defs>
</svg>
