<svg width="32" height="32" viewBox="0 0 32 32" fill="none" xmlns="http://www.w3.org/2000/svg">
<rect width="32" height="32" rx="16" fill="#006022"/>
<path d="M22.4002 22.4V17.7119C22.4002 15.4079 21.9042 13.6479 19.2162 13.6479C17.9202 13.6479 17.0562 14.3519 16.7042 15.0239H16.6722V13.8559H14.1282V22.4H16.7842V18.1599C16.7842 17.0399 16.9922 15.9679 18.3682 15.9679C19.7282 15.9679 19.7442 17.2319 19.7442 18.2239V22.384H22.4002V22.4Z" fill="white"/>
<path d="M9.80811 13.856H12.4641V22.4H9.80811V13.856Z" fill="white"/>
<path d="M11.1361 9.6001C10.2881 9.6001 9.6001 10.2881 9.6001 11.1361C9.6001 11.9841 10.2881 12.6881 11.1361 12.6881C11.9841 12.6881 12.6721 11.9841 12.6721 11.1361C12.6721 10.2881 11.9841 9.6001 11.1361 9.6001Z" fill="white"/>
</svg>
