<svg width="42" height="42" viewBox="0 0 42 42" fill="none" xmlns="http://www.w3.org/2000/svg">
<rect width="42" height="42" rx="21" fill="#03A300"/>
<g clip-path="url(#clip0_285_2662)">
<path d="M32.9245 19.6678C32.8866 19.3304 32.4932 19.0767 32.1529 19.0767C31.0534 19.0767 30.0775 18.4313 29.6683 17.4324C29.2505 16.4095 29.5201 15.2169 30.3393 14.4653C30.5973 14.2294 30.6288 13.8344 30.4125 13.5602C29.8495 12.8455 29.2099 12.1998 28.5114 11.6402C28.2381 11.421 27.8366 11.4515 27.5994 11.714C26.8842 12.5062 25.5993 12.8005 24.6065 12.3863C23.5736 11.9517 22.9217 10.9048 22.9858 9.78101C23.0068 9.42781 22.7486 9.1209 22.3966 9.0799C21.5002 8.97611 20.5959 8.9731 19.6968 9.07284C19.3493 9.11125 19.0913 9.41089 19.1028 9.75963C19.1417 10.8724 18.4825 11.9008 17.4596 12.3199C16.4787 12.7206 15.2028 12.4284 14.489 11.6432C14.2531 11.3846 13.8586 11.3528 13.5834 11.5674C12.8643 12.1317 12.2103 12.7778 11.6422 13.4867C11.4208 13.7622 11.4535 14.1616 11.7137 14.3984C12.5491 15.1549 12.8185 16.3579 12.3847 17.3927C11.9706 18.3792 10.9463 19.0147 9.77374 19.0147C9.39324 19.0025 9.12245 19.2581 9.08041 19.6041C8.97496 20.5054 8.97382 21.4241 9.07533 22.3327C9.11321 22.6715 9.51831 22.9231 9.86228 22.9231C10.9075 22.8965 11.9103 23.5431 12.3316 24.5672C12.7508 25.5901 12.4809 26.7823 11.6604 27.5348C11.4037 27.7708 11.3709 28.1649 11.5876 28.4388C12.1449 29.149 12.785 29.7951 13.4856 30.3594C13.7607 30.5809 14.1607 30.5499 14.3991 30.2871C15.1171 29.4931 16.4018 29.1992 17.3906 29.6143C18.4264 30.0477 19.078 31.0946 19.0144 32.2186C18.9935 32.5718 19.2524 32.8797 19.6031 32.9198C20.0619 32.9734 20.523 33 20.9856 33C21.4246 33 21.8638 32.976 22.3029 32.9271C22.6508 32.8887 22.9084 32.5888 22.8967 32.2399C22.8565 31.1277 23.5173 30.0991 24.5389 29.6809C25.5264 29.2776 26.7966 29.5728 27.5108 30.3568C27.7479 30.615 28.14 30.6463 28.4163 30.4326C29.1342 29.8697 29.7869 29.2239 30.3575 28.5132C30.5791 28.2381 30.5477 27.8382 30.286 27.6011C29.4508 26.845 29.18 25.6416 29.6138 24.6078C30.0215 23.6346 31.0077 22.9811 32.0684 22.9811L32.2169 22.985C32.5612 23.013 32.8777 22.7478 32.9193 22.3964C33.0253 21.4944 33.0264 20.5767 32.9245 19.6678ZM21 27.9181C17.1792 27.9181 14.0819 24.8209 14.0819 21.0001C14.0819 17.1794 17.1793 14.0821 21 14.0821C24.8208 14.0821 27.9181 17.1794 27.9181 21.0001C27.9181 22.297 27.5606 23.51 26.9396 24.5473L23.9103 21.518C24.1297 21.0009 24.2455 20.4403 24.2454 19.8618C24.2454 18.7289 23.8042 17.6639 23.003 16.8629C22.202 16.0619 21.137 15.6208 20.0044 15.6208C19.6263 15.6208 19.2501 15.6711 18.8861 15.7702C18.7267 15.8137 18.5963 15.9451 18.5539 16.1048C18.5105 16.2682 18.5594 16.4356 18.687 16.5634C18.687 16.5634 20.1826 18.0704 20.6829 18.5707C20.7354 18.6231 20.7353 18.7482 20.7279 18.7932L20.7232 18.8261C20.6728 19.3762 20.5755 20.0365 20.4953 20.2903C20.4845 20.301 20.4743 20.31 20.4633 20.321C20.4518 20.3326 20.4412 20.3437 20.4301 20.3551C20.173 20.4376 19.5025 20.536 18.9437 20.586L18.9438 20.583L18.9187 20.5893C18.9142 20.5898 18.9059 20.5905 18.8949 20.5905C18.8345 20.5905 18.7457 20.5736 18.6649 20.4929C18.1441 19.9721 16.7072 18.5455 16.7072 18.5455C16.5783 18.417 16.4461 18.39 16.358 18.39C16.1526 18.39 15.9686 18.5384 15.9107 18.7513C15.5152 20.2151 15.9345 21.7896 17.0053 22.8605C17.8065 23.6616 18.8716 24.1027 20.0045 24.1027C20.583 24.1027 21.1436 23.9869 21.6606 23.7676L24.7227 26.8298C23.6476 27.5177 22.371 27.9181 21 27.9181Z" fill="white"/>
</g>
<defs>
<clipPath id="clip0_285_2662">
<rect width="24" height="24" fill="white" transform="translate(9 9)"/>
</clipPath>
</defs>
</svg>
