<svg width="42" height="42" viewBox="0 0 42 42" fill="none" xmlns="http://www.w3.org/2000/svg">
<rect width="42" height="42" rx="21" fill="#03A300"/>
<g clip-path="url(#clip0_285_2624)">
<path fill-rule="evenodd" clip-rule="evenodd" d="M27.3728 33.0002C24.5978 33.0002 22.3384 30.7408 22.3384 27.9658C22.3384 25.1908 24.5978 22.9314 27.3728 22.9314C30.1478 22.9314 32.4072 25.1908 32.4072 27.9658C32.4072 30.7408 30.1478 33.0002 27.3728 33.0002ZM27.0915 30.7681C26.6307 30.7189 26.1905 30.5979 25.8681 30.4314C25.7321 30.3611 25.6759 30.1924 25.7462 30.0518C25.8165 29.9111 25.9853 29.8596 26.1259 29.9299C26.7118 30.2346 27.8368 30.3564 28.465 30.0611C28.704 29.9486 28.8447 29.7939 28.8962 29.5877C29.004 29.1143 28.9712 28.7721 28.7978 28.5658C28.5259 28.2424 27.8978 28.2236 27.3821 28.2471C26.6978 28.2752 25.9384 28.2377 25.5118 27.7267C25.2212 27.3752 25.1509 26.8689 25.2962 26.2174C25.3806 25.8377 25.6384 25.5424 26.0368 25.3549C26.3383 25.2154 26.7085 25.148 27.0915 25.1375V24.7127C27.0915 24.558 27.2181 24.4314 27.3728 24.4314C27.5275 24.4314 27.654 24.558 27.654 24.7127V25.161C28.1135 25.2109 28.5522 25.3325 28.8728 25.5002C29.0087 25.5705 29.065 25.7392 28.9946 25.8799C28.9243 26.0205 28.7556 26.0721 28.615 26.0017C28.029 25.697 26.904 25.5799 26.2759 25.8705C26.0368 25.983 25.8962 26.1377 25.8446 26.3439C25.7368 26.8173 25.7696 27.1595 25.9431 27.3658C26.215 27.6892 26.8431 27.708 27.3587 27.6846C28.0431 27.6564 28.8025 27.6939 29.229 28.2049C29.5197 28.5564 29.59 29.0627 29.4446 29.7142C29.3603 30.0939 29.1025 30.3892 28.704 30.5768C28.4051 30.7134 28.0362 30.78 27.654 30.7908V31.2189C27.654 31.3736 27.5275 31.5002 27.3728 31.5002C27.2181 31.5002 27.0915 31.3736 27.0915 31.2189V30.7681Z" fill="white"/>
<path fill-rule="evenodd" clip-rule="evenodd" d="M20.1889 30.7788C20.0651 30.7755 19.9416 30.77 19.8186 30.7626C18.4197 30.503 17.1135 29.4316 16.0888 27.6823C15.7918 27.1756 15.5275 26.6274 15.2975 26.0454C16.8008 26.4958 18.4633 26.7458 20.1889 26.7716L20.1889 30.7788ZM17.6393 30.4085C15.8202 29.9188 14.1535 28.9589 12.7852 27.5907C11.417 26.2224 10.4571 24.5557 9.96739 22.7367C10.5451 23.5 11.3602 24.1993 12.3906 24.8032C13.0555 25.1927 13.7867 25.5285 14.5688 25.807C14.8473 26.5891 15.183 27.3202 15.5725 27.9851C16.1765 29.0157 16.8759 29.8308 17.6393 30.4085ZM20.7846 26.7717C21.1947 26.7658 21.6034 26.7474 22.0091 26.7157C21.9155 27.1175 21.8658 27.5359 21.8658 27.9657C21.8658 28.8031 22.0542 29.5973 22.3902 30.3088C21.9879 30.5334 21.5758 30.6846 21.1574 30.7625C21.0333 30.77 20.909 30.7755 20.7846 30.7788L20.7846 26.7717ZM9.61339 20.5586C9.60605 20.4367 9.60058 20.3144 9.59726 20.1918H13.6042C13.6304 21.9157 13.8803 23.5765 14.3303 25.0783C13.7483 24.8483 13.2001 24.584 12.6935 24.287C10.9447 23.2626 9.87339 21.957 9.61339 20.5586ZM14.2049 20.1918H20.1889V26.171C18.3538 26.1428 16.5954 25.8544 15.0396 25.3361C14.5218 23.7817 14.2335 22.025 14.2049 20.1918ZM20.7846 20.1918H26.7736C26.7612 20.9796 26.7003 21.757 26.5925 22.5144C24.5565 22.8046 22.8753 24.213 22.1931 26.0955C21.728 26.138 21.2568 26.1633 20.7846 26.1709L20.7846 20.1918ZM27.3694 20.1918H31.3765C31.373 20.3236 31.3671 20.455 31.3589 20.5861C31.1871 21.4643 30.6932 22.3098 29.9004 23.0746C29.1429 22.6814 28.2832 22.4588 27.3727 22.4588C27.3154 22.4588 27.2584 22.46 27.2016 22.4618C27.302 21.7197 27.358 20.96 27.3694 20.1918ZM31.0062 22.7327C30.9269 23.0267 30.8351 23.3176 30.7309 23.605C30.6344 23.5305 30.5355 23.459 30.434 23.3908C30.6452 23.1771 30.8361 22.9575 31.0062 22.7327ZM9.59692 19.5961C9.60025 19.4701 9.60576 19.3445 9.61335 19.2193C9.87338 17.8209 10.9447 16.5153 12.6934 15.4909C13.2001 15.194 13.7482 14.9296 14.3302 14.6996C13.8794 16.2044 13.6294 17.8686 13.604 19.5961L9.59692 19.5961ZM15.0395 14.4419C16.5953 13.9236 18.3537 13.6352 20.1889 13.607V19.5961H14.2046C14.2324 17.7592 14.5208 15.999 15.0395 14.4419ZM20.7845 13.607C22.6234 13.6352 24.3819 13.9238 25.9387 14.4412C26.4575 15.9985 26.746 17.759 26.7737 19.5961H20.7845L20.7845 13.607ZM26.6404 14.6953C27.2248 14.9251 27.7755 15.1893 28.285 15.486C30.0158 16.4999 31.083 17.7893 31.3568 19.1714C31.3659 19.3125 31.3726 19.454 31.3764 19.5961H27.3694C27.3435 17.8668 27.0925 16.201 26.6404 14.6953ZM9.96902 17.039C10.46 15.2214 11.4207 13.5567 12.7851 12.1922C14.1529 10.8245 15.8209 9.86478 17.6392 9.37491C16.8759 9.95189 16.176 10.7654 15.5724 11.7928C15.183 12.4577 14.8472 13.1888 14.5687 13.971C13.7866 14.2495 13.0554 14.5852 12.3906 14.9747C11.3611 15.5781 10.5466 16.2767 9.96902 17.039ZM19.7797 9.02277C19.9156 9.01409 20.052 9.00782 20.1889 9.00416V13.0063C18.4632 13.0322 16.8007 13.2821 15.2974 13.7325C15.5274 13.1505 15.7917 12.6023 16.0887 12.0957C17.1039 10.3626 18.3954 9.2948 19.7797 9.02277ZM20.7845 9.00415C20.922 9.00782 21.0591 9.0141 21.1957 9.02283C22.5819 9.29497 23.8703 10.3627 24.8897 12.0957C25.1869 12.6028 25.4515 13.1516 25.6817 13.7342C24.1769 13.2828 22.5124 13.0322 20.7846 13.0063L20.7845 9.00415ZM23.3316 9.37369C25.1517 9.86317 26.8194 10.8233 28.1883 12.1922C29.5547 13.5586 30.5138 15.2226 31.0042 17.0387C30.4266 16.2765 29.6121 15.5781 28.5829 14.9748C27.9174 14.585 27.1856 14.2489 26.4027 13.9703C26.1246 13.1903 25.7895 12.4611 25.401 11.7978C24.7967 10.7669 24.0959 9.95145 23.3316 9.37369Z" fill="white"/>
</g>
<defs>
<clipPath id="clip0_285_2624">
<rect width="24" height="24" fill="white" transform="translate(9 9)"/>
</clipPath>
</defs>
</svg>
