<svg width="32" height="32" viewBox="0 0 32 32" fill="none" xmlns="http://www.w3.org/2000/svg">
<rect x="0.5" y="0.5" width="31" height="31" rx="15.5" fill="#006022"/>
<rect x="0.5" y="0.5" width="31" height="31" rx="15.5" stroke="#F9FAFB"/>
<path d="M22.384 12.0318C21.904 12.2398 21.408 12.3838 20.88 12.4478C21.424 12.1278 21.84 11.6158 22.032 10.9918C21.52 11.2958 20.96 11.5038 20.368 11.6318C19.888 11.1198 19.2 10.7998 18.448 10.7998C16.992 10.7998 15.824 11.9838 15.824 13.4238C15.824 13.6318 15.84 13.8238 15.888 14.0158C13.712 13.9198 11.792 12.8638 10.496 11.2798C9.56798 12.9438 10.608 14.3198 11.296 14.7838C10.88 14.7838 10.464 14.6558 10.112 14.4638C10.112 15.7598 11.024 16.8318 12.208 17.0718C11.952 17.1518 11.376 17.1998 11.024 17.1198C11.36 18.1598 12.336 18.9278 13.472 18.9438C12.576 19.6478 11.264 20.2078 9.58398 20.0318C10.752 20.7838 12.128 21.2158 13.616 21.2158C18.448 21.2158 21.072 17.2158 21.072 13.7598C21.072 13.6478 21.072 13.5358 21.056 13.4238C21.6 13.0238 22.048 12.5598 22.384 12.0318Z" fill="#EAECF0"/>
</svg>
